# ToLaserBlade
# https://github.com/Iunius118/ToLaserBlade
# Copyright 2022 Iunius118
# This work is licensed under the MIT License.

#_name laser_blade_2.obj
#_texture tolaserblade:textures/item/internal/laser_blade_2.png

v -0.093750 0.375000 0.093750
v 0.093750 0.375000 0.093750
v 0.093750 0.312500 0.093750
v -0.093750 0.312500 0.093750
v 0.093750 0.375000 0.093750
v 0.093750 0.375000 -0.093750
v 0.093750 0.312500 -0.093750
v 0.093750 0.312500 0.093750
v 0.093750 0.375000 -0.093750
v -0.093750 0.375000 -0.093750
v -0.093750 0.312500 -0.093750
v 0.093750 0.312500 -0.093750
v -0.093750 0.375000 -0.093750
v -0.093750 0.375000 0.093750
v -0.093750 0.312500 0.093750
v -0.093750 0.312500 -0.093750
v -0.093750 0.312500 0.093750
v 0.093750 0.312500 0.093750
v 0.093750 0.312500 -0.093750
v -0.093750 0.312500 -0.093750
v 0.031250 0.312500 0.031250
v 0.031250 0.312500 -0.031250
v 0.031250 0.000000 -0.031250
v 0.031250 0.000000 0.031250
v 0.031250 0.312500 -0.031250
v -0.031250 0.312500 -0.031250
v -0.031250 0.000000 -0.031250
v 0.031250 0.000000 -0.031250
v -0.031250 0.312500 -0.031250
v -0.031250 0.312500 0.031250
v -0.031250 0.000000 0.031250
v -0.031250 0.000000 -0.031250
v -0.031250 0.000000 0.031250
v 0.031250 0.000000 0.031250
v 0.031250 0.000000 -0.031250
v -0.031250 0.000000 -0.031250
v -0.093750 0.375000 0.093750
v 0.093750 0.375000 0.093750
v 0.093750 0.375000 -0.093750
v -0.093750 0.375000 -0.093750
v -0.031250 0.312500 0.031250
v 0.031250 0.312500 0.031250
v 0.031250 0.000000 0.031250
v -0.031250 0.000000 0.031250
v 0.031250 0.312500 -0.031250
v -0.031250 0.312500 -0.031250
v 0.093750 1.437500 -0.093750
v -0.093750 1.437500 -0.093750
v -0.093750 0.3828125 -0.093750
v 0.093750 0.3828125 -0.093750
v -0.093750 1.437500 -0.093750
v -0.093750 1.437500 0.093750
v -0.093750 0.3828125 0.093750
v -0.093750 0.3828125 -0.093750
v -0.093750 1.437500 0.093750
v 0.093750 1.437500 0.093750
v 0.093750 0.3828125 0.093750
v -0.093750 0.3828125 0.093750
v 0.093750 1.437500 0.093750
v 0.093750 1.437500 -0.093750
v 0.093750 0.3828125 -0.093750
v 0.093750 0.3828125 0.093750
v 0.093750 1.437500 0.093750
v -0.093750 1.437500 0.093750
v 0.093750 1.437500 -0.093750
v -0.093750 0.3828125 0.093750
v 0.093750 0.3828125 0.093750
v 0.093750 0.3828125 -0.093750
v -0.093750 0.3828125 -0.093750
v 0.000000 0.3671875 0.000000
v -0.093750 1.437500 -0.093750
v 0.062500 1.406250 -0.062500
v -0.062500 1.406250 -0.062500
v -0.062500 0.3828125 -0.062500
v 0.062500 0.3828125 -0.062500
v -0.062500 1.406250 -0.062500
v -0.062500 1.406250 0.062500
v -0.062500 0.3828125 0.062500
v -0.062500 0.3828125 -0.062500
v -0.062500 1.406250 0.062500
v 0.062500 1.406250 0.062500
v 0.062500 0.3828125 0.062500
v -0.062500 0.3828125 0.062500
v 0.062500 1.406250 0.062500
v 0.062500 1.406250 -0.062500
v 0.062500 0.3828125 -0.062500
v 0.062500 0.3828125 0.062500
v 0.062500 1.406250 0.062500
v -0.062500 1.406250 0.062500
v 0.062500 1.406250 -0.062500
v -0.062500 0.3828125 0.062500
v 0.062500 0.3828125 0.062500
v 0.062500 0.3828125 -0.062500
v -0.062500 0.3828125 -0.062500
v 0.000000 0.3671875 0.000000
v -0.062500 1.406250 -0.062500
v -0.031250 1.375000 0.031250
v 0.031250 1.375000 0.031250
v 0.031250 0.3828125 0.031250
v -0.031250 0.3828125 0.031250
v 0.031250 1.375000 0.031250
v 0.031250 1.375000 -0.031250
v 0.031250 0.3828125 -0.031250
v 0.031250 0.3828125 0.031250
v 0.031250 1.375000 -0.031250
v -0.031250 1.375000 -0.031250
v -0.031250 0.3828125 -0.031250
v 0.031250 0.3828125 -0.031250
v -0.031250 1.375000 -0.031250
v -0.031250 1.375000 0.031250
v -0.031250 0.3828125 0.031250
v -0.031250 0.3828125 -0.031250
v 0.031250 1.375000 -0.031250
v 0.031250 1.375000 0.031250
v -0.031250 1.375000 0.031250
v 0.031250 0.3828125 0.031250
v 0.031250 0.3828125 -0.031250
v -0.031250 0.3828125 -0.031250
v -0.031250 0.3828125 0.031250
v -0.031250 1.375000 -0.031250
v 0.000000 0.3671875 0.000000

vt 0.40625 0.09375
vt 0.50000 0.09375
vt 0.50000 0.12500
vt 0.40625 0.12500
vt 0.12500 0.09375
vt 0.21875 0.09375
vt 0.21875 0.12500
vt 0.12500 0.12500
vt 0.31250 0.09375
vt 0.31250 0.12500
vt 0.40625 0.00000
vt 0.31250 0.00000
vt 0.00000 0.03125
vt 0.03125 0.03125
vt 0.03125 0.18750
vt 0.00000 0.18750
vt 0.06250 0.03125
vt 0.06250 0.18750
vt 0.09375 0.03125
vt 0.09375 0.18750
vt 0.09375 0.00000
vt 0.06250 0.00000
vt 0.21875 0.00000
vt 0.12500 0.03125
vt 0.12500 0.18750
vt 0.03125 0.00000
vt 0.75000 0.21875
vt 0.75000 0.78125
vt 0.65625 0.78125
vt 0.65625 0.21875
vt 0.46875 0.21875
vt 0.46875 0.78125
vt 0.37500 0.78125
vt 0.37500 0.21875
vt 0.56250 0.21875
vt 0.56250 0.78125
vt 0.609375 0.171875
vt 0.56250 0.12500
vt 0.65625 0.12500
vt 0.46875 0.12500
vt 0.37500 0.75000
vt 0.31250 0.75000
vt 0.31250 0.21875
vt 0.18750 0.21875
vt 0.18750 0.75000
vt 0.12500 0.75000
vt 0.12500 0.21875
vt 0.25000 0.21875
vt 0.25000 0.75000
vt 0.28125 0.18750
vt 0.25000 0.15625
vt 0.31250 0.15625
vt 0.18750 0.15625
vt 0.09375 0.21875
vt 0.12500 0.71875
vt 0.09375 0.71875
vt 0.00000 0.21875
vt 0.03125 0.21875
vt 0.03125 0.71875
vt 0.00000 0.71875
vt 0.06250 0.21875
vt 0.06250 0.71875
vt 0.078125 0.203125

vn 0.00000 0.00000 1.00000
vn 1.00000 0.00000 0.00000
vn 0.00000 0.00000 -1.00000
vn -1.00000 0.00000 0.00000
vn 0.00000 -1.00000 0.00000
vn 0.00000 1.00000 0.00000
vn 0.08276 0.99313 -0.08276
vn -0.08276 0.99313 -0.08276
vn -0.08276 0.99313 0.08276
vn 0.08276 0.99313 0.08276
vn 0.00000 1.00000 0.00000
vn 0.12309 0.98473 -0.12309
vn -0.12309 0.98473 -0.12309
vn -0.12309 0.98473 0.12309
vn 0.12309 0.98473 0.12309
vn 0.23570 -0.94281 0.23570
vn 0.23570 -0.94281 -0.23570
vn -0.23570 -0.94281 -0.23570
vn -0.23570 -0.94281 0.23570

g Hilt
#_color 0.8 0.8 0.8 1
f 4/4/1 3/3/1 2/2/1 1/1/1
f 8/8/2 7/7/2 6/6/2 5/5/2
f 12/7/3 11/10/3 10/9/3 9/6/3
f 16/10/4 15/4/4 14/1/4 13/9/4
f 20/1/5 19/9/5 18/12/5 17/11/5
f 24/16/2 23/15/2 22/14/2 21/13/2
f 28/15/3 27/18/3 26/17/3 25/14/3
f 32/18/4 31/20/4 30/19/4 29/17/4
f 36/19/5 35/17/5 34/22/5 33/21/5
f 37/12/6 38/23/6 39/6/6 40/9/6
f 44/20/1 43/25/1 42/24/1 41/19/1
f 45/14/6 46/17/6 41/22/6 42/26/6
g BladeOut
#_color 1 1 1 0.25
f 48/30/1 49/29/1 50/28/1 47/27/1
f 52/34/2 53/33/2 54/32/2 51/31/2
f 56/31/3 57/32/3 58/36/3 55/35/3
f 60/35/4 61/36/4 62/29/4 59/30/4
f 66/39/7 67/38/8 70/37/11
f 67/38/8 68/35/9 70/37/11
f 68/35/9 69/30/10 70/37/11
f 69/30/10 66/39/7 70/37/11
f 71/35/5 65/31/5 63/40/5 64/38/5
g BladeMid
#_color 1 1 1 0.5
f 73/43/1 74/42/1 75/41/1 72/34/1
f 77/47/2 78/46/2 79/45/2 76/44/2
f 81/44/3 82/45/3 83/49/3 80/48/3
f 85/48/4 86/49/4 87/42/4 84/43/4
f 91/52/12 92/51/13 95/50/11
f 92/51/13 93/48/14 95/50/11
f 93/48/14 94/43/15 95/50/11
f 94/43/15 91/52/12 95/50/11
f 96/48/5 90/44/5 88/53/5 89/51/5
g BladeIn
#_color 1 1 1 0.9
f 100/56/1 99/55/1 98/47/1 97/54/1
f 104/60/2 103/59/2 102/58/2 101/57/2
f 108/59/3 107/62/3 106/61/3 105/58/3
f 112/62/4 111/56/4 110/54/4 109/61/4
f 117/61/17 116/18/16 121/63/5
f 116/18/16 119/20/19 121/63/5
f 119/20/19 118/54/18 121/63/5
f 118/54/18 117/61/17 121/63/5
f 114/15/6 113/58/6 120/61/6 115/18/6

