# ToLaserBlade
# https://github.com/Iunius118/ToLaserBlade
# Copyright 2020 Iunius118
# This work is licensed under the MIT License.

#_name laser_blade_316.obj
#_texture tolaserblade:textures/item/internal/laser_blade_316.png

v -0.031250 0.437500 0.031250
v -0.031250 0.437500 -0.031250
v 0.031250 0.437500 -0.031250
v 0.031250 0.437500 0.031250
v -0.031250 0.437500 -0.031250
v -0.031250 0.000000 -0.031250
v 0.031250 0.000000 -0.031250
v 0.031250 0.437500 -0.031250
v -0.031250 0.000000 -0.031250
v -0.031250 0.000000 0.031250
v 0.031250 0.000000 0.031250
v 0.031250 0.000000 -0.031250
v 0.031250 0.000000 0.031250
v 0.031250 0.437500 0.031250
v 0.031250 0.437500 -0.031250
v 0.031250 0.000000 -0.031250
v -0.031250 0.000000 0.031250
v -0.031250 0.437500 0.031250
v 0.031250 0.437500 0.031250
v 0.031250 0.000000 0.031250
v -0.031250 0.437500 -0.031250
v -0.031250 0.000000 -0.031250
v -0.031250 1.375000 0.031250
v -0.031250 1.375000 -0.031250
v 0.031250 1.375000 -0.031250
v 0.031250 1.375000 0.031250
v -0.031250 1.375000 -0.031250
v -0.031250 0.437500 -0.031250
v 0.031250 0.437500 -0.031250
v 0.031250 1.375000 -0.031250
v -0.031250 0.437500 -0.031250
v -0.031250 0.437500 0.031250
v 0.031250 0.437500 0.031250
v 0.031250 0.437500 -0.031250
v 0.031250 0.437500 0.031250
v 0.031250 1.375000 0.031250
v 0.031250 1.375000 -0.031250
v 0.031250 0.437500 -0.031250
v -0.031250 0.437500 0.031250
v -0.031250 1.375000 0.031250
v 0.031250 1.375000 0.031250
v 0.031250 0.437500 0.031250
v -0.031250 1.375000 -0.031250
v -0.031250 0.437500 -0.031250
v -0.062500 1.406250 0.062500
v -0.062500 1.406250 -0.062500
v 0.062500 1.406250 -0.062500
v 0.062500 1.406250 0.062500
v -0.062500 1.406250 -0.062500
v -0.062500 0.406250 -0.062500
v 0.062500 0.406250 -0.062500
v 0.062500 1.406250 -0.062500
v -0.062500 0.406250 -0.062500
v -0.062500 0.406250 0.062500
v 0.062500 0.406250 0.062500
v 0.062500 0.406250 -0.062500
v 0.062500 0.406250 0.062500
v 0.062500 1.406250 0.062500
v 0.062500 1.406250 -0.062500
v 0.062500 0.406250 -0.062500
v -0.062500 0.406250 0.062500
v -0.062500 1.406250 0.062500
v 0.062500 1.406250 0.062500
v 0.062500 0.406250 0.062500
v -0.062500 1.406250 -0.062500
v -0.062500 0.406250 -0.062500
v 0.156250 0.312500 0.093750
v 0.156250 0.312500 0.031250
v 0.156250 0.000000 0.031250
v 0.156250 0.000000 0.093750
v 0.156250 0.312500 0.031250
v -0.156250 0.312500 0.031250
v -0.156250 0.000000 0.031250
v 0.156250 0.000000 0.031250
v -0.156250 0.312500 0.031250
v -0.156250 0.312500 0.093750
v -0.156250 0.000000 0.093750
v -0.156250 0.000000 0.031250
v -0.156250 0.000000 0.093750
v 0.156250 0.000000 0.093750
v 0.156250 0.000000 0.031250
v -0.156250 0.000000 0.031250
v -0.156250 0.312500 0.093750
v 0.156250 0.312500 0.093750
v 0.156250 0.000000 0.093750
v -0.156250 0.000000 0.093750
v 0.156250 0.312500 0.031250
v -0.156250 0.312500 0.031250
v 0.156250 0.218750 -0.031250
v 0.343750 0.218750 -0.031250
v 0.343750 0.218750 0.156250
v 0.156250 0.218750 0.156250
v 0.343750 0.218750 -0.031250
v 0.343750 0.093750 -0.031250
v 0.343750 0.093750 0.156250
v 0.343750 0.218750 0.156250
v 0.343750 0.093750 -0.031250
v 0.156250 0.093750 -0.031250
v 0.156250 0.093750 0.156250
v 0.343750 0.093750 0.156250
v 0.156250 0.093750 -0.031250
v 0.156250 0.218750 -0.031250
v 0.156250 0.218750 0.156250
v 0.156250 0.093750 0.156250
v 0.156250 0.218750 0.156250
v 0.343750 0.218750 0.156250
v 0.343750 0.093750 0.156250
v 0.156250 0.093750 0.156250
v 0.156250 0.218750 -0.031250
v 0.343750 0.218750 -0.031250
v 0.343750 0.093750 -0.031250
v 0.156250 0.093750 -0.031250
v 0.218750 0.375000 0.437500
v 0.218750 -0.062500 0.437500
v 0.218750 -0.062500 -0.562500
v 0.218750 0.375000 -0.562500
v 0.218750 -0.062500 0.437500
v 0.281250 -0.062500 0.437500
v 0.281250 -0.062500 -0.562500
v 0.218750 -0.062500 -0.562500
v 0.281250 -0.062500 0.437500
v 0.281250 0.375000 0.437500
v 0.281250 0.375000 -0.562500
v 0.281250 -0.062500 -0.562500
v 0.281250 0.375000 0.437500
v 0.218750 0.375000 0.437500
v 0.218750 0.375000 -0.562500
v 0.281250 0.375000 -0.562500
v 0.281250 0.375000 0.437500
v 0.281250 -0.062500 0.437500
v 0.218750 -0.062500 0.437500
v 0.218750 0.375000 0.437500
v 0.218750 -0.062500 -0.562500
v 0.281250 -0.062500 -0.562500
v 0.281250 0.375000 -0.562500
v 0.218750 0.375000 -0.562500
v 0.203125 0.406250 0.468750
v 0.203125 -0.093750 0.468750
v 0.203125 -0.093750 -0.593750
v 0.203125 0.406250 -0.593750
v 0.203125 -0.093750 0.468750
v 0.296875 -0.093750 0.468750
v 0.296875 -0.093750 -0.593750
v 0.203125 -0.093750 -0.593750
v 0.296875 -0.093750 0.468750
v 0.296875 0.406250 0.468750
v 0.296875 0.406250 -0.593750
v 0.296875 -0.093750 -0.593750
v 0.296875 0.406250 0.468750
v 0.203125 0.406250 0.468750
v 0.203125 0.406250 -0.593750
v 0.296875 0.406250 -0.593750
v 0.296875 0.406250 0.468750
v 0.296875 -0.093750 0.468750
v 0.203125 -0.093750 0.468750
v 0.203125 0.406250 0.468750
v 0.203125 -0.093750 -0.593750
v 0.296875 -0.093750 -0.593750
v 0.296875 0.406250 -0.593750
v 0.203125 0.406250 -0.593750
v 0.187500 0.437500 0.500000
v 0.187500 -0.125000 0.500000
v 0.187500 -0.125000 -0.625000
v 0.187500 0.437500 -0.625000
v 0.187500 -0.125000 0.500000
v 0.312500 -0.125000 0.500000
v 0.312500 -0.125000 -0.625000
v 0.187500 -0.125000 -0.625000
v 0.312500 -0.125000 0.500000
v 0.312500 0.437500 0.500000
v 0.312500 0.437500 -0.625000
v 0.312500 -0.125000 -0.625000
v 0.312500 0.437500 0.500000
v 0.187500 0.437500 0.500000
v 0.187500 0.437500 -0.625000
v 0.312500 0.437500 -0.625000
v 0.312500 0.437500 0.500000
v 0.312500 -0.125000 0.500000
v 0.187500 -0.125000 0.500000
v 0.187500 0.437500 0.500000
v 0.187500 -0.125000 -0.625000
v 0.312500 -0.125000 -0.625000
v 0.312500 0.437500 -0.625000
v 0.187500 0.437500 -0.625000

vt 0.00000 0.75000
vt 0.03125 0.75000
vt 0.03125 0.78125
vt 0.00000 0.78125
vt 0.25000 0.75000
vt 0.25000 0.78125
vt 0.28125 0.75000
vt 0.28125 0.78125
vt 0.46875 0.71875
vt 0.25000 0.71875
vt 0.46875 0.75000
vt 0.50000 0.75000
vt 0.50000 0.78125
vt 0.03125 0.71875
vt 0.00000 0.81250
vt 0.03125 0.81250
vt 0.03125 0.84375
vt 0.00000 0.84375
vt 0.50000 0.81250
vt 0.50000 0.84375
vt 0.53125 0.81250
vt 0.53125 0.84375
vt 0.96875 0.78125
vt 0.96875 0.81250
vt 1.00000 0.81250
vt 1.00000 0.84375
vt 0.00000 0.87500
vt 0.03125 0.87500
vt 0.03125 0.90625
vt 0.00000 0.90625
vt 0.50000 0.87500
vt 0.50000 0.90625
vt 0.53125 0.87500
vt 0.53125 0.90625
vt 0.96875 0.84375
vt 0.96875 0.87500
vt 1.00000 0.87500
vt 1.00000 0.90625
vt 0.00000 0.03125
vt 0.03125 0.03125
vt 0.03125 0.18750
vt 0.00000 0.18750
vt 0.18750 0.03125
vt 0.18750 0.18750
vt 0.21875 0.03125
vt 0.21875 0.18750
vt 0.34375 0.00000
vt 0.18750 0.00000
vt 0.34375 0.03125
vt 0.37500 0.03125
vt 0.37500 0.18750
vt 0.03125 0.00000
vt 0.62500 0.18750
vt 0.53125 0.18750
vt 0.53125 0.09375
vt 0.62500 0.09375
vt 0.46875 0.18750
vt 0.46875 0.09375
vt 0.37500 0.09375
vt 0.68750 0.18750
vt 0.68750 0.09375
vt 0.53125 0.00000
vt 0.46875 0.00000
vt 0.59375 0.09375
vt 0.59375 0.00000
vt 0.28125 0.21875
vt 0.50000 0.21875
vt 0.50000 0.71875
vt 0.28125 0.71875
vt 0.00000 0.21875
vt 0.03125 0.21875
vt 0.00000 0.71875
vt 0.25000 0.21875
vt 0.25000 0.18750
vt 0.46875 0.21875
vt 0.78125 0.21875
vt 1.00000 0.21875
vt 1.00000 0.71875
vt 0.78125 0.71875
vt 0.53125 0.21875
vt 0.53125 0.71875
vt 0.75000 0.21875
vt 0.75000 0.71875
vt 0.75000 0.18750
vt 0.96875 0.21875
vt 0.96875 0.18750

vn 0.00000 1.00000 0.00000
vn 0.00000 0.00000 -1.00000
vn 0.00000 -1.00000 0.00000
vn 1.00000 0.00000 0.00000
vn 0.00000 0.00000 1.00000
vn -1.00000 0.00000 0.00000

g Hilt
#_color 0.8 0.8 0.8 1
f 4/4/1 3/3/1 2/2/1 1/1/1
f 8/3/2 7/6/2 6/5/2 5/2/2
f 12/6/3 11/8/3 10/7/3 9/5/3
f 16/11/4 15/5/4 14/10/4 13/9/4
f 20/8/5 19/13/5 18/12/5 17/7/5
f 21/2/6 22/5/6 17/10/6 18/14/6
g BladeIn
#_color 1 1 1 0.9
f 26/18/1 25/17/1 24/16/1 23/15/1
f 30/17/2 29/20/2 28/19/2 27/16/2
f 34/20/3 33/22/3 32/21/3 31/19/3
f 38/24/4 37/19/4 36/13/4 35/23/4
f 42/22/5 41/26/5 40/25/5 39/21/5
f 43/16/6 44/19/6 39/13/6 40/3/6
g BladeOut
#_color 1 1 1 0.5
f 48/30/1 47/29/1 46/28/1 45/27/1
f 52/29/2 51/32/2 50/31/2 49/28/2
f 56/32/3 55/34/3 54/33/3 53/31/3
f 60/36/4 59/31/4 58/20/4 57/35/4
f 64/34/5 63/38/5 62/37/5 61/33/5
f 65/28/6 66/31/6 61/20/6 62/17/6
g ShieldGrip
#_color 0.8 0.8 0.8 1
f 70/42/4 69/41/4 68/40/4 67/39/4
f 74/41/2 73/44/2 72/43/2 71/40/2
f 78/44/6 77/46/6 76/45/6 75/43/6
f 82/49/3 81/43/3 80/48/3 79/47/3
f 86/46/5 85/51/5 84/50/5 83/45/5
f 87/40/1 88/43/1 83/48/1 84/52/1
f 92/56/1 91/55/1 90/54/1 89/53/1
f 96/55/4 95/58/4 94/57/4 93/54/4
f 100/58/3 99/59/3 98/51/3 97/57/3
f 104/61/6 103/56/6 102/53/6 101/60/6
f 108/63/5 107/58/5 106/55/5 105/62/5
f 109/65/2 110/64/2 111/55/2 112/62/2
g ShieldIn
#_color 1 1 1 0.5
f 116/69/6 115/68/6 114/67/6 113/66/6
f 120/72/3 119/14/3 118/71/3 117/70/3
f 124/14/4 123/10/4 122/73/4 121/71/4
f 128/10/1 127/69/1 126/66/1 125/73/1
f 132/74/5 131/41/5 130/71/5 129/73/5
f 136/57/2 135/75/2 134/73/2 133/74/2
g ShieldMid
#_color 1 1 1 0.5
f 140/79/6 139/78/6 138/77/6 137/76/6
f 144/68/3 143/81/3 142/80/3 141/67/3
f 148/81/4 147/83/4 146/82/4 145/80/4
f 152/83/1 151/79/1 150/76/1 149/82/1
f 156/84/5 155/54/5 154/80/5 153/82/5
f 160/86/2 159/85/2 158/82/2 157/84/2
g ShieldOut
#_color 1 1 1 0.25
f 164/79/6 163/78/6 162/77/6 161/76/6
f 168/68/3 167/81/3 166/80/3 165/67/3
f 172/81/4 171/83/4 170/82/4 169/80/4
f 176/83/1 175/79/1 174/76/1 173/82/1
f 180/84/5 179/54/5 178/80/5 177/82/5
f 184/86/2 183/85/2 182/82/2 181/84/2

