# ToLaserBlade
# https://github.com/Iunius118/ToLaserBlade
# Copyright 2020 Iunius118
# This work is licensed under the MIT License.

#_name laser_blade_1216.obj
#_texture tolaserblade:textures/item/internal/laser_blade_1216.png

v 0.031250 0.312500 0.031250
v 0.031250 0.312500 -0.031250
v 0.031250 0.000000 -0.031250
v 0.031250 0.000000 0.031250
v 0.031250 0.312500 -0.031250
v -0.031250 0.312500 -0.031250
v -0.031250 0.000000 -0.031250
v 0.031250 0.000000 -0.031250
v -0.031250 0.312500 -0.031250
v -0.031250 0.312500 0.031250
v -0.031250 0.000000 0.031250
v -0.031250 0.000000 -0.031250
v -0.031250 0.000000 0.031250
v 0.031250 0.000000 0.031250
v 0.031250 0.000000 -0.031250
v -0.031250 0.000000 -0.031250
v -0.031250 0.312500 0.031250
v 0.031250 0.312500 0.031250
v 0.031250 0.000000 0.031250
v -0.031250 0.000000 0.031250
v 0.031250 0.312500 -0.031250
v -0.031250 0.312500 -0.031250
v -0.062500 0.000000 0.062500
v 0.062500 0.000000 0.062500
v 0.062500 -0.062500 0.062500
v -0.062500 -0.062500 0.062500
v 0.062500 0.000000 0.062500
v 0.062500 0.000000 -0.062500
v 0.062500 -0.062500 -0.062500
v 0.062500 -0.062500 0.062500
v 0.062500 0.000000 -0.062500
v -0.062500 0.000000 -0.062500
v -0.062500 -0.062500 -0.062500
v 0.062500 -0.062500 -0.062500
v -0.062500 0.000000 -0.062500
v -0.062500 0.000000 0.062500
v -0.062500 -0.062500 0.062500
v -0.062500 -0.062500 -0.062500
v -0.062500 -0.062500 0.062500
v 0.062500 -0.062500 0.062500
v 0.062500 -0.062500 -0.062500
v -0.062500 -0.062500 -0.062500
v -0.062500 0.000000 0.062500
v 0.062500 0.000000 0.062500
v 0.062500 0.000000 -0.062500
v -0.062500 0.000000 -0.062500
v -0.062500 0.375000 0.062500
v 0.062500 0.375000 0.062500
v 0.062500 0.312500 0.062500
v -0.062500 0.312500 0.062500
v 0.062500 0.375000 0.062500
v 0.062500 0.375000 -0.062500
v 0.062500 0.312500 -0.062500
v 0.062500 0.312500 0.062500
v 0.062500 0.375000 -0.062500
v -0.062500 0.375000 -0.062500
v -0.062500 0.312500 -0.062500
v 0.062500 0.312500 -0.062500
v -0.062500 0.375000 -0.062500
v -0.062500 0.375000 0.062500
v -0.062500 0.312500 0.062500
v -0.062500 0.312500 -0.062500
v -0.062500 0.312500 0.062500
v 0.062500 0.312500 0.062500
v 0.062500 0.312500 -0.062500
v -0.062500 0.312500 -0.062500
v -0.062500 0.375000 0.062500
v 0.062500 0.375000 0.062500
v 0.062500 0.375000 -0.062500
v -0.062500 0.375000 -0.062500
v -0.031250 1.375000 0.031250
v 0.031250 1.375000 0.031250
v 0.031250 0.375000 0.031250
v -0.031250 0.375000 0.031250
v 0.031250 1.375000 0.031250
v 0.031250 1.375000 -0.031250
v 0.031250 0.375000 -0.031250
v 0.031250 0.375000 0.031250
v 0.031250 1.375000 -0.031250
v -0.031250 1.375000 -0.031250
v -0.031250 0.375000 -0.031250
v 0.031250 0.375000 -0.031250
v -0.031250 1.375000 -0.031250
v -0.031250 1.375000 0.031250
v -0.031250 0.375000 0.031250
v -0.031250 0.375000 -0.031250
v -0.031250 1.375000 -0.031250
v 0.031250 1.375000 -0.031250
v 0.031250 1.375000 0.031250
v -0.031250 1.375000 0.031250
v 0.031250 0.375000 0.031250
v 0.031250 0.375000 -0.031250
v -0.031250 0.375000 -0.031250
v -0.031250 0.375000 0.031250
v -0.062500 1.406250 0.062500
v 0.062500 1.406250 0.062500
v 0.062500 0.375000 0.062500
v -0.062500 0.375000 0.062500
v 0.062500 1.406250 0.062500
v 0.062500 1.406250 -0.062500
v 0.062500 0.375000 -0.062500
v 0.062500 0.375000 0.062500
v 0.062500 1.406250 -0.062500
v -0.062500 1.406250 -0.062500
v -0.062500 0.375000 -0.062500
v 0.062500 0.375000 -0.062500
v -0.062500 1.406250 -0.062500
v -0.062500 1.406250 0.062500
v -0.062500 0.375000 0.062500
v -0.062500 0.375000 -0.062500
v -0.062500 1.406250 -0.062500
v 0.062500 1.406250 -0.062500
v 0.062500 1.406250 0.062500
v -0.062500 1.406250 0.062500
v 0.062500 0.375000 0.062500
v -0.062500 0.375000 0.062500
v 0.062500 0.375000 -0.062500
v -0.062500 0.375000 -0.062500
v -0.093750 1.437500 0.093750
v 0.093750 1.437500 0.093750
v 0.093750 0.375000 0.093750
v -0.093750 0.375000 0.093750
v 0.093750 1.437500 0.093750
v 0.093750 1.437500 -0.093750
v 0.093750 0.375000 -0.093750
v 0.093750 0.375000 0.093750
v 0.093750 1.437500 -0.093750
v -0.093750 1.437500 -0.093750
v -0.093750 0.375000 -0.093750
v 0.093750 0.375000 -0.093750
v -0.093750 1.437500 -0.093750
v -0.093750 1.437500 0.093750
v -0.093750 0.375000 0.093750
v -0.093750 0.375000 -0.093750
v -0.093750 1.437500 -0.093750
v 0.093750 1.437500 -0.093750
v 0.093750 1.437500 0.093750
v -0.093750 1.437500 0.093750
v -0.093750 0.375000 0.093750
v 0.093750 0.375000 0.093750
v 0.093750 0.375000 -0.093750
v -0.093750 0.375000 -0.093750

vt 0.00000 0.03125
vt 0.03125 0.03125
vt 0.03125 0.18750
vt 0.00000 0.18750
vt 0.06250 0.03125
vt 0.06250 0.18750
vt 0.09375 0.03125
vt 0.09375 0.18750
vt 0.09375 0.00000
vt 0.06250 0.00000
vt 0.12500 0.03125
vt 0.12500 0.18750
vt 0.03125 0.00000
vt 0.56250 0.06250
vt 0.62500 0.06250
vt 0.62500 0.09375
vt 0.56250 0.09375
vt 0.37500 0.06250
vt 0.43750 0.06250
vt 0.43750 0.09375
vt 0.37500 0.09375
vt 0.50000 0.06250
vt 0.50000 0.09375
vt 0.56250 0.00000
vt 0.50000 0.00000
vt 0.43750 0.00000
vt 0.31250 0.06250
vt 0.31250 0.09375
vt 0.12500 0.06250
vt 0.18750 0.06250
vt 0.18750 0.09375
vt 0.12500 0.09375
vt 0.25000 0.06250
vt 0.25000 0.09375
vt 0.31250 0.00000
vt 0.25000 0.00000
vt 0.18750 0.00000
vt 0.09375 0.21875
vt 0.12500 0.21875
vt 0.12500 0.71875
vt 0.09375 0.71875
vt 0.00000 0.21875
vt 0.03125 0.21875
vt 0.03125 0.71875
vt 0.00000 0.71875
vt 0.06250 0.21875
vt 0.06250 0.71875
vt 0.31250 0.21875
vt 0.37500 0.21875
vt 0.37500 0.75000
vt 0.31250 0.75000
vt 0.18750 0.21875
vt 0.18750 0.75000
vt 0.12500 0.75000
vt 0.25000 0.21875
vt 0.25000 0.75000
vt 0.18750 0.15625
vt 0.25000 0.15625
vt 0.31250 0.15625
vt 0.65625 0.21875
vt 0.75000 0.21875
vt 0.75000 0.78125
vt 0.65625 0.78125
vt 0.46875 0.21875
vt 0.46875 0.78125
vt 0.37500 0.78125
vt 0.56250 0.21875
vt 0.56250 0.78125
vt 0.46875 0.12500
vt 0.56250 0.12500
vt 0.65625 0.12500

vn 1.00000 0.00000 0.00000
vn 0.00000 0.00000 -1.00000
vn -1.00000 0.00000 0.00000
vn 0.00000 -1.00000 0.00000
vn 0.00000 0.00000 1.00000
vn 0.00000 1.00000 0.00000

g Hilt
#_color 0.8 0.8 0.8 1
f 4/4/1 3/3/1 2/2/1 1/1/1
f 8/3/2 7/6/2 6/5/2 5/2/2
f 12/6/3 11/8/3 10/7/3 9/5/3
f 16/7/4 15/5/4 14/10/4 13/9/4
f 20/8/5 19/12/5 18/11/5 17/7/5
f 21/2/6 22/5/6 17/10/6 18/13/6
f 26/17/5 25/16/5 24/15/5 23/14/5
f 30/21/1 29/20/1 28/19/1 27/18/1
f 34/20/2 33/23/2 32/22/2 31/19/2
f 38/23/3 37/17/3 36/14/3 35/22/3
f 42/14/4 41/22/4 40/25/4 39/24/4
f 43/25/6 44/26/6 45/19/6 46/22/6
f 50/28/5 49/21/5 48/18/5 47/27/5
f 54/32/1 53/31/1 52/30/1 51/29/1
f 58/31/2 57/34/2 56/33/2 55/30/2
f 62/34/3 61/28/3 60/27/3 59/33/3
f 66/27/4 65/33/4 64/36/4 63/35/4
f 67/36/6 68/37/6 69/30/6 70/33/6
g BladeIn
#_color 1 1 1 0.9
f 74/41/5 73/40/5 72/39/5 71/38/5
f 78/45/1 77/44/1 76/43/1 75/42/1
f 82/44/2 81/47/2 80/46/2 79/43/2
f 86/47/3 85/41/3 84/38/3 83/46/3
f 90/6/6 89/3/6 88/43/6 87/46/6
f 94/8/4 93/38/4 92/46/4 91/6/4
g BladeMid
#_color 1 1 1 0.5
f 98/51/5 97/50/5 96/49/5 95/48/5
f 102/54/1 101/53/1 100/52/1 99/39/1
f 106/53/2 105/56/2 104/55/2 103/52/2
f 110/56/3 109/51/3 108/48/3 107/55/3
f 114/58/6 113/57/6 112/52/6 111/55/6
f 115/58/4 116/59/4 118/48/4 117/55/4
g BladeOut
#_color 1 1 1 0.25
f 122/63/5 121/62/5 120/61/5 119/60/5
f 126/66/1 125/65/1 124/64/1 123/49/1
f 130/65/2 129/68/2 128/67/2 127/64/2
f 134/68/3 133/63/3 132/60/3 131/67/3
f 138/70/6 137/69/6 136/64/6 135/67/6
f 142/60/4 141/67/4 140/70/4 139/71/4

