# ToLaserBlade
# https://github.com/Iunius118/ToLaserBlade
# Copyright 2021 Iunius118
# This work is licensed under the MIT License.

#_name laser_blade_924.obj
#_texture tolaserblade:textures/item/internal/laser_blade_924.png

v -0.093750 0.375000 0.093750
v 0.093750 0.375000 0.093750
v 0.093750 0.312500 0.093750
v -0.093750 0.312500 0.093750
v 0.093750 0.375000 0.093750
v 0.093750 0.375000 -0.093750
v 0.093750 0.312500 -0.093750
v 0.093750 0.312500 0.093750
v 0.093750 0.375000 -0.093750
v -0.093750 0.375000 -0.093750
v -0.093750 0.312500 -0.093750
v 0.093750 0.312500 -0.093750
v -0.093750 0.375000 -0.093750
v -0.093750 0.375000 0.093750
v -0.093750 0.312500 0.093750
v -0.093750 0.312500 -0.093750
v -0.093750 0.312500 0.093750
v 0.093750 0.312500 0.093750
v 0.093750 0.312500 -0.093750
v -0.093750 0.312500 -0.093750
v 0.062500 0.312500 0.062500
v 0.062500 0.312500 -0.062500
v 0.062500 0.000000 -0.062500
v 0.062500 0.000000 0.062500
v 0.062500 0.312500 -0.062500
v -0.062500 0.312500 -0.062500
v -0.062500 0.000000 -0.062500
v 0.062500 0.000000 -0.062500
v -0.062500 0.312500 -0.062500
v -0.062500 0.312500 0.062500
v -0.062500 0.000000 0.062500
v -0.062500 0.000000 -0.062500
v -0.062500 0.000000 0.062500
v 0.062500 0.000000 0.062500
v 0.062500 0.000000 -0.062500
v -0.062500 0.000000 -0.062500
v -0.093750 0.375000 0.093750
v 0.093750 0.375000 0.093750
v 0.093750 0.375000 -0.093750
v -0.093750 0.375000 -0.093750
v -0.062500 0.312500 0.062500
v 0.062500 0.312500 0.062500
v 0.062500 0.000000 0.062500
v -0.062500 0.000000 0.062500
v 0.062500 0.312500 -0.062500
v -0.062500 0.312500 -0.062500
v -0.093750 0.437500 0.093750
v 0.093750 0.437500 0.093750
v 0.093750 0.375000 0.093750
v -0.093750 0.375000 0.093750
v 0.093750 0.437500 0.093750
v 0.093750 0.437500 -0.093750
v 0.093750 0.375000 -0.093750
v 0.093750 0.375000 0.093750
v 0.093750 0.437500 -0.093750
v -0.093750 0.437500 -0.093750
v -0.093750 0.375000 -0.093750
v 0.093750 0.375000 -0.093750
v -0.093750 0.437500 -0.093750
v -0.093750 0.437500 0.093750
v -0.093750 0.375000 0.093750
v -0.093750 0.375000 -0.093750
v -0.093750 0.375000 0.093750
v 0.093750 0.375000 0.093750
v 0.093750 0.375000 -0.093750
v -0.093750 0.375000 -0.093750
v -0.093750 0.437500 0.093750
v 0.093750 0.437500 0.093750
v 0.093750 0.437500 -0.093750
v -0.093750 0.437500 -0.093750
v 0.062500 0.500000 0.062500
v 0.062500 0.500000 -0.062500
v 0.062500 0.437500 -0.062500
v 0.062500 0.437500 0.062500
v 0.062500 0.500000 -0.062500
v -0.062500 0.500000 -0.062500
v -0.062500 0.437500 -0.062500
v 0.062500 0.437500 -0.062500
v -0.062500 0.500000 -0.062500
v -0.062500 0.500000 0.062500
v -0.062500 0.437500 0.062500
v -0.062500 0.437500 -0.062500
v -0.062500 0.437500 0.062500
v 0.062500 0.437500 0.062500
v 0.062500 0.437500 -0.062500
v -0.062500 0.437500 -0.062500
v -0.062500 0.500000 0.062500
v 0.062500 0.500000 0.062500
v 0.062500 0.437500 0.062500
v -0.062500 0.437500 0.062500
v 0.062500 0.500000 -0.062500
v -0.062500 0.500000 -0.062500
v -0.031250 1.375000 0.031250
v 0.031250 1.375000 0.031250
v 0.031250 0.500000 0.031250
v -0.031250 0.500000 0.031250
v 0.031250 1.375000 0.031250
v 0.031250 1.375000 -0.031250
v 0.031250 0.500000 -0.031250
v 0.031250 0.500000 0.031250
v 0.031250 1.375000 -0.031250
v -0.031250 1.375000 -0.031250
v -0.031250 0.500000 -0.031250
v 0.031250 0.500000 -0.031250
v -0.031250 1.375000 -0.031250
v -0.031250 1.375000 0.031250
v -0.031250 0.500000 0.031250
v -0.031250 0.500000 -0.031250
v -0.031250 1.375000 -0.031250
v 0.031250 1.375000 -0.031250
v 0.031250 1.375000 0.031250
v -0.031250 1.375000 0.031250
v 0.031250 0.500000 0.031250
v 0.031250 0.500000 -0.031250
v -0.031250 0.500000 -0.031250
v -0.031250 0.500000 0.031250
v -0.062500 1.406250 0.062500
v 0.062500 1.406250 0.062500
v 0.062500 0.500000 0.062500
v -0.062500 0.500000 0.062500
v 0.062500 1.406250 0.062500
v 0.062500 1.406250 -0.062500
v 0.062500 0.500000 -0.062500
v 0.062500 0.500000 0.062500
v 0.062500 1.406250 -0.062500
v -0.062500 1.406250 -0.062500
v -0.062500 0.500000 -0.062500
v 0.062500 0.500000 -0.062500
v -0.062500 1.406250 -0.062500
v -0.062500 1.406250 0.062500
v -0.062500 0.500000 0.062500
v -0.062500 0.500000 -0.062500
v -0.062500 1.406250 -0.062500
v 0.062500 1.406250 -0.062500
v 0.062500 1.406250 0.062500
v -0.062500 1.406250 0.062500
v 0.062500 0.500000 0.062500
v -0.062500 0.500000 0.062500
v 0.062500 0.500000 -0.062500
v -0.062500 0.500000 -0.062500
v -0.093750 1.437500 0.093750
v 0.093750 1.437500 0.093750
v 0.093750 0.437500 0.093750
v -0.093750 0.437500 0.093750
v 0.093750 1.437500 0.093750
v 0.093750 1.437500 -0.093750
v 0.093750 0.437500 -0.093750
v 0.093750 0.437500 0.093750
v 0.093750 1.437500 -0.093750
v -0.093750 1.437500 -0.093750
v -0.093750 0.437500 -0.093750
v 0.093750 0.437500 -0.093750
v -0.093750 1.437500 -0.093750
v -0.093750 1.437500 0.093750
v -0.093750 0.437500 0.093750
v -0.093750 0.437500 -0.093750
v -0.093750 1.437500 -0.093750
v 0.093750 1.437500 -0.093750
v 0.093750 1.437500 0.093750
v -0.093750 1.437500 0.093750
v -0.093750 0.437500 0.093750
v 0.093750 0.437500 0.093750
v 0.093750 0.437500 -0.093750
v -0.093750 0.437500 -0.093750

vt 0.53125 0.09375
vt 0.62500 0.09375
vt 0.62500 0.12500
vt 0.53125 0.12500
vt 0.25000 0.09375
vt 0.34375 0.09375
vt 0.34375 0.12500
vt 0.25000 0.12500
vt 0.43750 0.09375
vt 0.43750 0.12500
vt 0.53125 0.00000
vt 0.43750 0.00000
vt 0.00000 0.06250
vt 0.06250 0.06250
vt 0.06250 0.21875
vt 0.00000 0.21875
vt 0.12500 0.06250
vt 0.12500 0.21875
vt 0.18750 0.06250
vt 0.18750 0.21875
vt 0.18750 0.00000
vt 0.12500 0.00000
vt 0.34375 0.00000
vt 0.25000 0.06250
vt 0.25000 0.21875
vt 0.06250 0.00000
vt 0.90625 0.09375
vt 1.00000 0.09375
vt 1.00000 0.12500
vt 0.90625 0.12500
vt 0.71875 0.09375
vt 0.71875 0.12500
vt 0.81250 0.09375
vt 0.81250 0.12500
vt 0.90625 0.00000
vt 0.81250 0.00000
vt 0.71875 0.00000
vt 0.25000 0.18750
vt 0.31250 0.18750
vt 0.31250 0.21875
vt 0.37500 0.18750
vt 0.37500 0.21875
vt 0.43750 0.18750
vt 0.43750 0.21875
vt 0.37500 0.12500
vt 0.50000 0.18750
vt 0.50000 0.21875
vt 0.31250 0.12500
vt 0.09375 0.25000
vt 0.12500 0.25000
vt 0.12500 0.71875
vt 0.09375 0.71875
vt 0.00000 0.25000
vt 0.03125 0.25000
vt 0.03125 0.71875
vt 0.00000 0.71875
vt 0.06250 0.25000
vt 0.06250 0.71875
vt 0.03125 0.21875
vt 0.09375 0.21875
vt 0.31250 0.28125
vt 0.37500 0.28125
vt 0.37500 0.78125
vt 0.31250 0.78125
vt 0.12500 0.28125
vt 0.18750 0.28125
vt 0.18750 0.78125
vt 0.12500 0.78125
vt 0.25000 0.28125
vt 0.25000 0.78125
vt 0.65625 0.31250
vt 0.75000 0.31250
vt 0.75000 0.87500
vt 0.65625 0.87500
vt 0.37500 0.31250
vt 0.46875 0.31250
vt 0.46875 0.87500
vt 0.37500 0.87500
vt 0.56250 0.31250
vt 0.56250 0.87500
vt 0.46875 0.21875
vt 0.56250 0.21875
vt 0.65625 0.21875

vn 0.00000 0.00000 1.00000
vn 1.00000 0.00000 0.00000
vn 0.00000 0.00000 -1.00000
vn -1.00000 0.00000 0.00000
vn 0.00000 -1.00000 0.00000
vn 0.00000 1.00000 0.00000

g Hilt
#_color 0.8 0.8 0.8 1
f 4/4/1 3/3/1 2/2/1 1/1/1
f 8/8/2 7/7/2 6/6/2 5/5/2
f 12/7/3 11/10/3 10/9/3 9/6/3
f 16/10/4 15/4/4 14/1/4 13/9/4
f 20/1/5 19/9/5 18/12/5 17/11/5
f 24/16/2 23/15/2 22/14/2 21/13/2
f 28/15/3 27/18/3 26/17/3 25/14/3
f 32/18/4 31/20/4 30/19/4 29/17/4
f 36/19/5 35/17/5 34/22/5 33/21/5
f 37/12/6 38/23/6 39/6/6 40/9/6
f 44/20/1 43/25/1 42/24/1 41/19/1
f 45/14/6 46/17/6 41/22/6 42/26/6
g HiltNoTint
#_color 0.8 0.8 0.8 1
f 50/30/1 49/29/1 48/28/1 47/27/1
f 54/3/2 53/32/2 52/31/2 51/2/2
f 58/32/3 57/34/3 56/33/3 55/31/3
f 62/34/4 61/30/4 60/27/4 59/33/4
f 66/27/5 65/33/5 64/36/5 63/35/5
f 67/36/6 68/37/6 69/31/6 70/33/6
g HiltLight
#_color 1 1 1 1
f 74/25/2 73/40/2 72/39/2 71/38/2
f 78/40/3 77/42/3 76/41/3 75/39/3
f 82/42/4 81/44/4 80/43/4 79/41/4
f 86/43/5 85/41/5 84/45/5 83/10/5
f 90/44/1 89/47/1 88/46/1 87/43/1
f 91/39/6 92/41/6 87/45/6 88/48/6
g BladeIn
#_color 1 1 1 0.9
f 96/52/1 95/51/1 94/50/1 93/49/1
f 100/56/2 99/55/2 98/54/2 97/53/2
f 104/55/3 103/58/3 102/57/3 101/54/3
f 108/58/4 107/52/4 106/49/4 105/57/4
f 112/15/6 111/59/6 110/54/6 109/57/6
f 116/60/5 115/49/5 114/57/5 113/15/5
g BladeMid
#_color 1 1 1 0.5
f 120/64/1 119/63/1 118/62/1 117/61/1
f 124/68/2 123/67/2 122/66/2 121/65/2
f 128/67/3 127/70/3 126/69/3 125/66/3
f 132/70/4 131/64/4 130/61/4 129/69/4
f 136/25/6 135/20/6 134/66/6 133/69/6
f 137/25/5 138/40/5 140/61/5 139/69/5
g BladeOut
#_color 1 1 1 0.25
f 144/74/1 143/73/1 142/72/1 141/71/1
f 148/78/2 147/77/2 146/76/2 145/75/2
f 152/77/3 151/80/3 150/79/3 149/76/3
f 156/80/4 155/74/4 154/71/4 153/79/4
f 160/82/6 159/81/6 158/76/6 157/79/6
f 164/71/5 163/79/5 162/82/5 161/83/5

