# ToLaserBlade
# https://github.com/Iunius118/ToLaserBlade
# Copyright 2020 Iunius118
# This work is licensed under the MIT License.

#_name laser_blade_913.obj
#_texture tolaserblade:textures/item/internal/laser_blade_913.png

v 0.062500 0.625000 0.062500
v 0.062500 0.625000 -0.062500
v 0.062500 0.000000 -0.062500
v 0.062500 0.000000 0.062500
v 0.062500 0.625000 -0.062500
v -0.062500 0.625000 -0.062500
v -0.062500 0.000000 -0.062500
v 0.062500 0.000000 -0.062500
v -0.062500 0.625000 -0.062500
v -0.062500 0.625000 0.062500
v -0.062500 0.000000 0.062500
v -0.062500 0.000000 -0.062500
v -0.062500 0.000000 0.062500
v 0.062500 0.000000 0.062500
v 0.062500 0.000000 -0.062500
v -0.062500 0.000000 -0.062500
v -0.062500 0.625000 0.062500
v 0.062500 0.625000 0.062500
v 0.062500 0.000000 0.062500
v -0.062500 0.000000 0.062500
v -0.062500 0.625000 0.062500
v 0.062500 0.625000 0.062500
v 0.062500 0.625000 -0.062500
v -0.062500 0.625000 -0.062500
v 0.031250 1.000000 0.031250
v 0.031250 1.000000 -0.031250
v 0.031250 0.625000 -0.031250
v 0.031250 0.625000 0.031250
v 0.031250 1.000000 -0.031250
v -0.031250 1.000000 -0.031250
v -0.031250 0.625000 -0.031250
v 0.031250 0.625000 -0.031250
v -0.031250 1.000000 -0.031250
v -0.031250 1.000000 0.031250
v -0.031250 0.625000 0.031250
v -0.031250 0.625000 -0.031250
v -0.031250 0.625000 0.031250
v 0.031250 0.625000 0.031250
v 0.031250 0.625000 -0.031250
v -0.031250 0.625000 -0.031250
v -0.031250 1.000000 0.031250
v 0.031250 1.000000 0.031250
v 0.031250 0.625000 0.031250
v -0.031250 0.625000 0.031250
v -0.031250 1.000000 0.031250
v 0.031250 1.000000 0.031250
v 0.031250 1.000000 -0.031250
v -0.031250 1.000000 -0.031250
v 0.125000 1.062500 0.125000
v 0.125000 1.062500 -0.125000
v 0.125000 1.000000 -0.125000
v 0.125000 1.000000 0.125000
v 0.125000 1.062500 -0.125000
v -0.125000 1.062500 -0.125000
v -0.125000 1.000000 -0.125000
v 0.125000 1.000000 -0.125000
v -0.125000 1.062500 -0.125000
v -0.125000 1.062500 0.125000
v -0.125000 1.000000 0.125000
v -0.125000 1.000000 -0.125000
v -0.125000 1.000000 0.125000
v 0.125000 1.000000 0.125000
v 0.125000 1.000000 -0.125000
v -0.125000 1.000000 -0.125000
v -0.125000 1.062500 0.125000
v 0.125000 1.062500 0.125000
v 0.125000 1.000000 0.125000
v -0.125000 1.000000 0.125000
v -0.125000 1.062500 0.125000
v 0.125000 1.062500 0.125000
v 0.125000 1.062500 -0.125000
v -0.125000 1.062500 -0.125000
v 0.031250 1.375000 -0.062500
v 0.031250 1.375000 -0.125000
v 0.031250 1.062500 -0.125000
v 0.031250 1.062500 -0.062500
v 0.031250 1.375000 -0.125000
v -0.031250 1.375000 -0.125000
v -0.031250 1.062500 -0.125000
v 0.031250 1.062500 -0.125000
v -0.031250 1.375000 -0.125000
v -0.031250 1.375000 -0.062500
v -0.031250 1.062500 -0.062500
v -0.031250 1.062500 -0.125000
v -0.031250 1.062500 -0.062500
v 0.031250 1.062500 -0.062500
v 0.031250 1.062500 -0.125000
v -0.031250 1.062500 -0.125000
v -0.031250 1.375000 -0.062500
v 0.031250 1.375000 -0.062500
v 0.031250 1.062500 -0.062500
v -0.031250 1.062500 -0.062500
v -0.031250 1.375000 -0.062500
v 0.031250 1.375000 -0.062500
v 0.031250 1.375000 -0.125000
v -0.031250 1.375000 -0.125000
v 0.062500 1.375000 0.031250
v 0.125000 1.375000 0.031250
v 0.125000 1.062500 0.031250
v 0.062500 1.062500 0.031250
v 0.125000 1.375000 0.031250
v 0.125000 1.375000 -0.031250
v 0.125000 1.062500 -0.031250
v 0.125000 1.062500 0.031250
v 0.125000 1.375000 -0.031250
v 0.062500 1.375000 -0.031250
v 0.062500 1.062500 -0.031250
v 0.125000 1.062500 -0.031250
v 0.062500 1.062500 -0.031250
v 0.062500 1.062500 0.031250
v 0.125000 1.062500 0.031250
v 0.125000 1.062500 -0.031250
v 0.062500 1.375000 -0.031250
v 0.062500 1.375000 0.031250
v 0.062500 1.062500 0.031250
v 0.062500 1.062500 -0.031250
v 0.062500 1.375000 -0.031250
v 0.062500 1.375000 0.031250
v 0.125000 1.375000 0.031250
v 0.125000 1.375000 -0.031250
v -0.031250 1.375000 0.062500
v -0.031250 1.375000 0.125000
v -0.031250 1.062500 0.125000
v -0.031250 1.062500 0.062500
v -0.031250 1.375000 0.125000
v 0.031250 1.375000 0.125000
v 0.031250 1.062500 0.125000
v -0.031250 1.062500 0.125000
v 0.031250 1.375000 0.125000
v 0.031250 1.375000 0.062500
v 0.031250 1.062500 0.062500
v 0.031250 1.062500 0.125000
v 0.031250 1.062500 0.062500
v -0.031250 1.062500 0.062500
v -0.031250 1.062500 0.125000
v 0.031250 1.062500 0.125000
v 0.031250 1.375000 0.062500
v -0.031250 1.375000 0.062500
v -0.031250 1.062500 0.062500
v 0.031250 1.062500 0.062500
v 0.031250 1.375000 0.062500
v -0.031250 1.375000 0.062500
v -0.031250 1.375000 0.125000
v 0.031250 1.375000 0.125000
v -0.062500 1.375000 -0.031250
v -0.125000 1.375000 -0.031250
v -0.125000 1.062500 -0.031250
v -0.062500 1.062500 -0.031250
v -0.125000 1.375000 -0.031250
v -0.125000 1.375000 0.031250
v -0.125000 1.062500 0.031250
v -0.125000 1.062500 -0.031250
v -0.125000 1.375000 0.031250
v -0.062500 1.375000 0.031250
v -0.062500 1.062500 0.031250
v -0.125000 1.062500 0.031250
v -0.062500 1.062500 0.031250
v -0.062500 1.062500 -0.031250
v -0.125000 1.062500 -0.031250
v -0.125000 1.062500 0.031250
v -0.062500 1.375000 0.031250
v -0.062500 1.375000 -0.031250
v -0.062500 1.062500 -0.031250
v -0.062500 1.062500 0.031250
v -0.062500 1.375000 0.031250
v -0.062500 1.375000 -0.031250
v -0.125000 1.375000 -0.031250
v -0.125000 1.375000 0.031250
v 0.050000 1.387500 0.043750
v 0.137500 1.387500 0.043750
v 0.137500 1.062500 0.043750
v 0.050000 1.062500 0.043750
v 0.137500 1.387500 0.043750
v 0.137500 1.387500 -0.043750
v 0.137500 1.062500 -0.043750
v 0.137500 1.062500 0.043750
v 0.137500 1.387500 -0.043750
v 0.050000 1.387500 -0.043750
v 0.050000 1.062500 -0.043750
v 0.137500 1.062500 -0.043750
v 0.050000 1.062500 -0.043750
v 0.050000 1.062500 0.043750
v 0.137500 1.062500 0.043750
v 0.137500 1.062500 -0.043750
v 0.050000 1.387500 -0.043750
v 0.050000 1.387500 0.043750
v 0.050000 1.062500 0.043750
v 0.050000 1.062500 -0.043750
v 0.050000 1.387500 -0.043750
v 0.050000 1.387500 0.043750
v 0.137500 1.387500 0.043750
v 0.137500 1.387500 -0.043750
v 0.043750 1.387500 -0.050000
v 0.043750 1.387500 -0.137500
v 0.043750 1.062500 -0.137500
v 0.043750 1.062500 -0.050000
v 0.043750 1.387500 -0.137500
v -0.043750 1.387500 -0.137500
v -0.043750 1.062500 -0.137500
v 0.043750 1.062500 -0.137500
v -0.043750 1.387500 -0.137500
v -0.043750 1.387500 -0.050000
v -0.043750 1.062500 -0.050000
v -0.043750 1.062500 -0.137500
v -0.043750 1.062500 -0.050000
v 0.043750 1.062500 -0.050000
v 0.043750 1.062500 -0.137500
v -0.043750 1.062500 -0.137500
v -0.043750 1.387500 -0.050000
v 0.043750 1.387500 -0.050000
v 0.043750 1.062500 -0.050000
v -0.043750 1.062500 -0.050000
v -0.043750 1.387500 -0.050000
v 0.043750 1.387500 -0.050000
v 0.043750 1.387500 -0.137500
v -0.043750 1.387500 -0.137500
v -0.043750 1.387500 0.050000
v -0.043750 1.387500 0.137500
v -0.043750 1.062500 0.137500
v -0.043750 1.062500 0.050000
v -0.043750 1.387500 0.137500
v 0.043750 1.387500 0.137500
v 0.043750 1.062500 0.137500
v -0.043750 1.062500 0.137500
v 0.043750 1.387500 0.137500
v 0.043750 1.387500 0.050000
v 0.043750 1.062500 0.050000
v 0.043750 1.062500 0.137500
v 0.043750 1.062500 0.050000
v -0.043750 1.062500 0.050000
v -0.043750 1.062500 0.137500
v 0.043750 1.062500 0.137500
v 0.043750 1.387500 0.050000
v -0.043750 1.387500 0.050000
v -0.043750 1.062500 0.050000
v 0.043750 1.062500 0.050000
v 0.043750 1.387500 0.050000
v -0.043750 1.387500 0.050000
v -0.043750 1.387500 0.137500
v 0.043750 1.387500 0.137500
v -0.050000 1.387500 -0.043750
v -0.137500 1.387500 -0.043750
v -0.137500 1.062500 -0.043750
v -0.050000 1.062500 -0.043750
v -0.137500 1.387500 -0.043750
v -0.137500 1.387500 0.043750
v -0.137500 1.062500 0.043750
v -0.137500 1.062500 -0.043750
v -0.137500 1.387500 0.043750
v -0.050000 1.387500 0.043750
v -0.050000 1.062500 0.043750
v -0.137500 1.062500 0.043750
v -0.050000 1.062500 0.043750
v -0.050000 1.062500 -0.043750
v -0.137500 1.062500 -0.043750
v -0.137500 1.062500 0.043750
v -0.050000 1.387500 0.043750
v -0.050000 1.387500 -0.043750
v -0.050000 1.062500 -0.043750
v -0.050000 1.062500 0.043750
v -0.050000 1.387500 0.043750
v -0.050000 1.387500 -0.043750
v -0.137500 1.387500 -0.043750
v -0.137500 1.387500 0.043750

vt 0.00000 0.06250
vt 0.06250 0.06250
vt 0.06250 0.37500
vt 0.00000 0.37500
vt 0.12500 0.06250
vt 0.12500 0.37500
vt 0.18750 0.06250
vt 0.18750 0.37500
vt 0.18750 0.00000
vt 0.12500 0.00000
vt 0.25000 0.06250
vt 0.25000 0.37500
vt 0.06250 0.00000
vt 0.28125 0.06250
vt 0.28125 0.25000
vt 0.25000 0.25000
vt 0.31250 0.06250
vt 0.31250 0.25000
vt 0.34375 0.06250
vt 0.34375 0.25000
vt 0.34375 0.03125
vt 0.31250 0.03125
vt 0.37500 0.06250
vt 0.37500 0.25000
vt 0.28125 0.03125
vt 0.37500 0.12500
vt 0.50000 0.12500
vt 0.50000 0.15625
vt 0.37500 0.15625
vt 0.62500 0.12500
vt 0.62500 0.15625
vt 0.75000 0.12500
vt 0.75000 0.15625
vt 0.75000 0.00000
vt 0.62500 0.00000
vt 0.87500 0.12500
vt 0.87500 0.15625
vt 0.50000 0.00000
vt 0.00000 0.40625
vt 0.03125 0.40625
vt 0.03125 0.56250
vt 0.00000 0.56250
vt 0.06250 0.40625
vt 0.06250 0.56250
vt 0.09375 0.40625
vt 0.09375 0.56250
vt 0.09375 0.37500
vt 0.12500 0.40625
vt 0.12500 0.56250
vt 0.03125 0.37500
vt 0.15625 0.40625
vt 0.15625 0.56250
vt 0.18750 0.40625
vt 0.18750 0.56250
vt 0.21875 0.40625
vt 0.21875 0.56250
vt 0.21875 0.37500
vt 0.25000 0.40625
vt 0.25000 0.56250
vt 0.15625 0.37500

vn 1.00000 0.00000 0.00000
vn 0.00000 0.00000 -1.00000
vn -1.00000 0.00000 0.00000
vn 0.00000 -1.00000 0.00000
vn 0.00000 0.00000 1.00000
vn 0.00000 1.00000 0.00000

g Hilt
#_color 0.8 0.8 0.8 1
f 4/4/1 3/3/1 2/2/1 1/1/1
f 8/3/2 7/6/2 6/5/2 5/2/2
f 12/6/3 11/8/3 10/7/3 9/5/3
f 16/7/4 15/5/4 14/10/4 13/9/4
f 20/8/5 19/12/5 18/11/5 17/7/5
f 22/13/6 23/2/6 24/5/6 21/10/6
g BladeOff
#_color 0.8 0.8 0.8 1
f 28/16/1 27/15/1 26/14/1 25/11/1
f 32/15/2 31/18/2 30/17/2 29/14/2
f 36/18/3 35/20/3 34/19/3 33/17/3
f 40/19/4 39/17/4 38/22/4 37/21/4
f 44/20/5 43/24/5 42/23/5 41/19/5
f 46/25/6 47/14/6 48/17/6 45/22/6
f 52/29/1 51/28/1 50/27/1 49/26/1
f 56/28/2 55/31/2 54/30/2 53/27/2
f 60/31/3 59/33/3 58/32/3 57/30/3
f 64/32/4 63/30/4 62/35/4 61/34/4
f 68/33/5 67/37/5 66/36/5 65/32/5
f 70/38/6 71/27/6 72/30/6 69/35/6
g BladeIn
#_color 1 1 1 0.9
f 76/42/1 75/41/1 74/40/1 73/39/1
f 80/41/2 79/44/2 78/43/2 77/40/2
f 84/44/3 83/46/3 82/45/3 81/43/3
f 88/45/4 87/43/4 86/3/4 85/47/4
f 92/46/5 91/49/5 90/48/5 89/45/5
f 94/50/6 95/40/6 96/43/6 93/3/6
f 100/42/5 99/41/5 98/40/5 97/39/5
f 104/41/1 103/44/1 102/43/1 101/40/1
f 108/44/2 107/46/2 106/45/2 105/43/2
f 112/45/4 111/43/4 110/3/4 109/47/4
f 116/46/3 115/49/3 114/48/3 113/45/3
f 118/50/6 119/40/6 120/43/6 117/3/6
f 124/42/3 123/41/3 122/40/3 121/39/3
f 128/41/5 127/44/5 126/43/5 125/40/5
f 132/44/1 131/46/1 130/45/1 129/43/1
f 136/45/4 135/43/4 134/3/4 133/47/4
f 140/46/2 139/49/2 138/48/2 137/45/2
f 142/50/6 143/40/6 144/43/6 141/3/6
f 148/42/2 147/41/2 146/40/2 145/39/2
f 152/41/3 151/44/3 150/43/3 149/40/3
f 156/44/5 155/46/5 154/45/5 153/43/5
f 160/45/4 159/43/4 158/3/4 157/47/4
f 164/46/1 163/49/1 162/48/1 161/45/1
f 166/50/6 167/40/6 168/43/6 165/3/6
g BladeOut
#_color 1 1 1 0.5
f 172/49/5 171/52/5 170/51/5 169/48/5
f 176/52/1 175/54/1 174/53/1 173/51/1
f 180/54/2 179/56/2 178/55/2 177/53/2
f 184/55/4 183/53/4 182/8/4 181/57/4
f 188/56/3 187/59/3 186/58/3 185/55/3
f 190/60/6 191/51/6 192/53/6 189/8/6
f 196/49/1 195/52/1 194/51/1 193/48/1
f 200/52/2 199/54/2 198/53/2 197/51/2
f 204/54/3 203/56/3 202/55/3 201/53/3
f 208/55/4 207/53/4 206/8/4 205/57/4
f 212/56/5 211/59/5 210/58/5 209/55/5
f 214/60/6 215/51/6 216/53/6 213/8/6
f 220/49/3 219/52/3 218/51/3 217/48/3
f 224/52/5 223/54/5 222/53/5 221/51/5
f 228/54/1 227/56/1 226/55/1 225/53/1
f 232/55/4 231/53/4 230/8/4 229/57/4
f 236/56/2 235/59/2 234/58/2 233/55/2
f 238/60/6 239/51/6 240/53/6 237/8/6
f 244/49/2 243/52/2 242/51/2 241/48/2
f 248/52/3 247/54/3 246/53/3 245/51/3
f 252/54/5 251/56/5 250/55/5 249/53/5
f 256/55/4 255/53/4 254/8/4 253/57/4
f 260/56/1 259/59/1 258/58/1 257/55/1
f 262/60/6 263/51/6 264/53/6 261/8/6

