# ToLaserBlade
# https://github.com/Iunius118/ToLaserBlade
# Copyright 2020 Iunius118
# This work is licensed under the MIT License.

#_name laser_blade_1108.obj
#_texture tolaserblade:textures/item/internal/laser_blade_1108.png

v 0.031250 0.375000 0.031250
v 0.031250 0.375000 -0.031250
v 0.031250 0.000000 -0.031250
v 0.031250 0.000000 0.031250
v 0.031250 0.375000 -0.031250
v -0.031250 0.375000 -0.031250
v -0.031250 0.000000 -0.031250
v 0.031250 0.000000 -0.031250
v -0.031250 0.375000 -0.031250
v -0.031250 0.375000 0.031250
v -0.031250 0.000000 0.031250
v -0.031250 0.000000 -0.031250
v -0.031250 0.000000 0.031250
v 0.031250 0.000000 0.031250
v 0.031250 0.000000 -0.031250
v -0.031250 0.000000 -0.031250
v -0.031250 0.375000 0.031250
v 0.031250 0.375000 0.031250
v 0.031250 0.000000 0.031250
v -0.031250 0.000000 0.031250
v 0.031250 0.375000 -0.031250
v -0.031250 0.375000 -0.031250
v -0.031250 1.375000 0.031250
v 0.031250 1.375000 0.031250
v 0.031250 0.000000 0.031250
v -0.031250 0.000000 0.031250
v 0.031250 1.375000 0.031250
v 0.031250 1.375000 -0.031250
v 0.031250 0.000000 -0.031250
v 0.031250 0.000000 0.031250
v 0.031250 1.375000 -0.031250
v -0.031250 1.375000 -0.031250
v -0.031250 0.000000 -0.031250
v 0.031250 0.000000 -0.031250
v -0.031250 1.375000 -0.031250
v -0.031250 1.375000 0.031250
v -0.031250 0.000000 0.031250
v -0.031250 0.000000 -0.031250
v -0.031250 1.375000 -0.031250
v 0.031250 1.375000 -0.031250
v 0.031250 1.375000 0.031250
v -0.031250 1.375000 0.031250
v 0.031250 0.000000 0.031250
v 0.031250 0.000000 -0.031250
v -0.031250 0.000000 -0.031250
v -0.031250 0.000000 0.031250
v -0.062500 1.406250 0.062500
v 0.062500 1.406250 0.062500
v 0.062500 -0.031250 0.062500
v -0.062500 -0.031250 0.062500
v 0.062500 1.406250 0.062500
v 0.062500 1.406250 -0.062500
v 0.062500 -0.031250 -0.062500
v 0.062500 -0.031250 0.062500
v 0.062500 1.406250 -0.062500
v -0.062500 1.406250 -0.062500
v -0.062500 -0.031250 -0.062500
v 0.062500 -0.031250 -0.062500
v -0.062500 1.406250 -0.062500
v -0.062500 1.406250 0.062500
v -0.062500 -0.031250 0.062500
v -0.062500 -0.031250 -0.062500
v -0.062500 1.406250 -0.062500
v 0.062500 1.406250 -0.062500
v 0.062500 1.406250 0.062500
v -0.062500 1.406250 0.062500
v 0.062500 -0.031250 0.062500
v -0.062500 -0.031250 0.062500
v 0.062500 -0.031250 -0.062500
v -0.062500 -0.031250 -0.062500
v -0.093750 1.437500 0.093750
v 0.093750 1.437500 0.093750
v 0.093750 -0.062500 0.093750
v -0.093750 -0.062500 0.093750
v 0.093750 1.437500 0.093750
v 0.093750 1.437500 -0.093750
v 0.093750 -0.062500 -0.093750
v 0.093750 -0.062500 0.093750
v 0.093750 1.437500 -0.093750
v -0.093750 1.437500 -0.093750
v -0.093750 -0.062500 -0.093750
v 0.093750 -0.062500 -0.093750
v -0.093750 1.437500 -0.093750
v -0.093750 1.437500 0.093750
v -0.093750 -0.062500 0.093750
v -0.093750 -0.062500 -0.093750
v -0.093750 1.437500 -0.093750
v 0.093750 1.437500 -0.093750
v 0.093750 1.437500 0.093750
v -0.093750 1.437500 0.093750
v -0.093750 -0.062500 0.093750
v 0.093750 -0.062500 0.093750
v 0.093750 -0.062500 -0.093750
v -0.093750 -0.062500 -0.093750

vt 0.00000 0.03125
vt 0.03125 0.03125
vt 0.03125 0.21875
vt 0.00000 0.21875
vt 0.06250 0.03125
vt 0.06250 0.21875
vt 0.09375 0.03125
vt 0.09375 0.21875
vt 0.09375 0.00000
vt 0.06250 0.00000
vt 0.12500 0.03125
vt 0.12500 0.21875
vt 0.03125 0.00000
vt 0.09375 0.25000
vt 0.12500 0.25000
vt 0.12500 0.93750
vt 0.09375 0.93750
vt 0.00000 0.25000
vt 0.03125 0.25000
vt 0.03125 0.93750
vt 0.00000 0.93750
vt 0.06250 0.25000
vt 0.06250 0.93750
vt 0.31250 0.25000
vt 0.37500 0.25000
vt 0.37500 0.96875
vt 0.31250 0.96875
vt 0.18750 0.25000
vt 0.18750 0.96875
vt 0.12500 0.96875
vt 0.25000 0.25000
vt 0.25000 0.96875
vt 0.18750 0.18750
vt 0.25000 0.18750
vt 0.31250 0.18750
vt 0.65625 0.25000
vt 0.75000 0.25000
vt 0.75000 1.00000
vt 0.65625 1.00000
vt 0.46875 0.25000
vt 0.46875 1.00000
vt 0.37500 1.00000
vt 0.56250 0.25000
vt 0.56250 1.00000
vt 0.46875 0.15625
vt 0.56250 0.15625
vt 0.65625 0.15625

vn 1.00000 0.00000 0.00000
vn 0.00000 0.00000 -1.00000
vn -1.00000 0.00000 0.00000
vn 0.00000 -1.00000 0.00000
vn 0.00000 0.00000 1.00000
vn 0.00000 1.00000 0.00000

g BladeOff
#_color 0.8 0.8 0.8 1
f 4/4/1 3/3/1 2/2/1 1/1/1
f 8/3/2 7/6/2 6/5/2 5/2/2
f 12/6/3 11/8/3 10/7/3 9/5/3
f 16/7/4 15/5/4 14/10/4 13/9/4
f 20/8/5 19/12/5 18/11/5 17/7/5
f 21/2/6 22/5/6 17/10/6 18/13/6
g BladeIn
#_color 1 1 1 0.9
f 26/17/5 25/16/5 24/15/5 23/14/5
f 30/21/1 29/20/1 28/19/1 27/18/1
f 34/20/2 33/23/2 32/22/2 31/19/2
f 38/23/3 37/17/3 36/14/3 35/22/3
f 42/6/6 41/3/6 40/19/6 39/22/6
f 46/8/4 45/14/4 44/22/4 43/6/4
g BladeMid
#_color 1 1 1 0.5
f 50/27/5 49/26/5 48/25/5 47/24/5
f 54/30/1 53/29/1 52/28/1 51/15/1
f 58/29/2 57/32/2 56/31/2 55/28/2
f 62/32/3 61/27/3 60/24/3 59/31/3
f 66/34/6 65/33/6 64/28/6 63/31/6
f 67/34/4 68/35/4 70/24/4 69/31/4
g BladeOut
#_color 1 1 1 0.5
f 74/39/5 73/38/5 72/37/5 71/36/5
f 78/42/1 77/41/1 76/40/1 75/25/1
f 82/41/2 81/44/2 80/43/2 79/40/2
f 86/44/3 85/39/3 84/36/3 83/43/3
f 90/46/6 89/45/6 88/40/6 87/43/6
f 94/36/4 93/43/4 92/46/4 91/47/4

