# ToLaserBlade
# https://github.com/Iunius118/ToLaserBlade
# Copyright 2020 Iunius118
# This work is licensed under the MIT License.

#_name laser_blade_305.obj
#_texture tolaserblade:textures/item/internal/laser_blade_305.png

v 0.031250 0.312500 0.062500
v 0.031250 0.312500 -0.062500
v 0.031250 0.000000 -0.062500
v 0.031250 0.000000 0.062500
v 0.031250 0.312500 -0.062500
v -0.031250 0.312500 -0.062500
v -0.031250 0.000000 -0.062500
v 0.031250 0.000000 -0.062500
v -0.031250 0.312500 -0.062500
v -0.031250 0.312500 0.062500
v -0.031250 0.000000 0.062500
v -0.031250 0.000000 -0.062500
v -0.031250 0.000000 0.062500
v 0.031250 0.000000 0.062500
v 0.031250 0.000000 -0.062500
v -0.031250 0.000000 -0.062500
v -0.031250 0.312500 0.062500
v 0.031250 0.312500 0.062500
v 0.031250 0.000000 0.062500
v -0.031250 0.000000 0.062500
v 0.031250 0.375000 0.093750
v 0.031250 0.375000 -0.093750
v 0.031250 0.312500 -0.093750
v 0.031250 0.312500 0.093750
v 0.031250 0.375000 -0.093750
v -0.031250 0.375000 -0.093750
v -0.031250 0.312500 -0.093750
v 0.031250 0.312500 -0.093750
v -0.031250 0.375000 -0.093750
v -0.031250 0.375000 0.093750
v -0.031250 0.312500 0.093750
v -0.031250 0.312500 -0.093750
v -0.031250 0.312500 0.093750
v 0.031250 0.312500 0.093750
v 0.031250 0.312500 -0.093750
v -0.031250 0.312500 -0.093750
v -0.031250 0.375000 0.093750
v 0.031250 0.375000 0.093750
v 0.031250 0.312500 0.093750
v -0.031250 0.312500 0.093750
v -0.031250 0.375000 0.062500
v 0.031250 0.375000 0.062500
v 0.031250 0.375000 -0.062500
v -0.031250 0.375000 -0.062500
v -0.031250 1.437500 0.062500
v 0.031250 1.437500 0.062500
v 0.031250 0.375000 0.062500
v -0.031250 0.375000 0.062500
v 0.031250 1.437500 0.062500
v 0.031250 1.437500 -0.062500
v 0.031250 0.375000 -0.062500
v 0.031250 0.375000 0.062500
v 0.031250 1.437500 -0.062500
v -0.031250 1.437500 -0.062500
v -0.031250 0.375000 -0.062500
v 0.031250 0.375000 -0.062500
v -0.031250 1.437500 -0.062500
v -0.031250 1.437500 0.062500
v -0.031250 0.375000 0.062500
v -0.031250 0.375000 -0.062500
v -0.031250 1.437500 -0.062500
v 0.031250 1.437500 -0.062500
v 0.031250 1.437500 0.062500
v -0.031250 1.437500 0.062500
v 0.031250 1.437500 -0.062500
v -0.031250 1.437500 -0.062500
v -0.031250 0.375000 -0.062500
v 0.031250 0.375000 -0.062500
v -0.031250 1.437500 -0.062500
v -0.031250 1.437500 0.062500
v -0.031250 0.375000 0.062500
v -0.031250 0.375000 -0.062500
v -0.031250 1.437500 0.062500
v 0.031250 1.437500 0.062500
v 0.031250 0.375000 0.062500
v -0.031250 0.375000 0.062500
v 0.031250 1.437500 0.062500
v 0.031250 1.437500 -0.062500
v 0.031250 0.375000 -0.062500
v 0.031250 0.375000 0.062500
v 0.031250 1.437500 0.062500
v -0.031250 1.437500 0.062500
v -0.031250 1.437500 -0.062500
v 0.031250 1.437500 -0.062500
v -0.031250 0.375000 0.062500
v 0.031250 0.375000 0.062500
v 0.031250 0.375000 -0.062500
v -0.031250 0.375000 -0.062500
v -0.025000 1.431250 0.050000
v 0.025000 1.431250 0.050000
v 0.025000 0.381250 0.050000
v -0.025000 0.381250 0.050000
v 0.025000 1.431250 0.050000
v 0.025000 1.431250 -0.050000
v 0.025000 0.381250 -0.050000
v 0.025000 0.381250 0.050000
v 0.025000 1.431250 -0.050000
v -0.025000 1.431250 -0.050000
v -0.025000 0.381250 -0.050000
v 0.025000 0.381250 -0.050000
v -0.025000 1.431250 -0.050000
v -0.025000 1.431250 0.050000
v -0.025000 0.381250 0.050000
v -0.025000 0.381250 -0.050000
v -0.025000 1.431250 -0.050000
v 0.025000 1.431250 -0.050000
v 0.025000 1.431250 0.050000
v -0.025000 1.431250 0.050000
v 0.025000 0.381250 0.050000
v 0.025000 0.381250 -0.050000
v -0.025000 0.381250 -0.050000
v -0.025000 0.381250 0.050000
v -0.062500 1.468750 0.093750
v 0.062500 1.468750 0.093750
v 0.062500 0.375000 0.093750
v -0.062500 0.375000 0.093750
v 0.062500 1.468750 0.093750
v 0.062500 1.468750 -0.093750
v 0.062500 0.375000 -0.093750
v 0.062500 0.375000 0.093750
v 0.062500 1.468750 -0.093750
v -0.062500 1.468750 -0.093750
v -0.062500 0.375000 -0.093750
v 0.062500 0.375000 -0.093750
v -0.062500 1.468750 -0.093750
v -0.062500 1.468750 0.093750
v -0.062500 0.375000 0.093750
v -0.062500 0.375000 -0.093750
v -0.062500 1.468750 -0.093750
v 0.062500 1.468750 -0.093750
v 0.062500 1.468750 0.093750
v -0.062500 1.468750 0.093750
v 0.062500 0.375000 0.093750
v -0.062500 0.375000 0.093750
v 0.062500 0.375000 -0.093750
v -0.062500 0.375000 -0.093750

vt 0.00000 0.06250
vt 0.06250 0.06250
vt 0.06250 0.21875
vt 0.00000 0.21875
vt 0.09375 0.06250
vt 0.09375 0.21875
vt 0.15625 0.06250
vt 0.15625 0.21875
vt 0.12500 0.00000
vt 0.09375 0.00000
vt 0.12500 0.06250
vt 0.18750 0.06250
vt 0.18750 0.21875
vt 0.18750 0.09375
vt 0.28125 0.09375
vt 0.28125 0.12500
vt 0.18750 0.12500
vt 0.31250 0.09375
vt 0.31250 0.12500
vt 0.40625 0.09375
vt 0.40625 0.12500
vt 0.34375 0.00000
vt 0.31250 0.00000
vt 0.34375 0.09375
vt 0.43750 0.09375
vt 0.43750 0.12500
vt 0.28125 0.078125
vt 0.31250 0.078125
vt 0.31250 0.015625
vt 0.28125 0.015625
vt 0.28125 0.00000
vt 0.84375 0.28125
vt 0.87500 0.28125
vt 0.87500 0.81250
vt 0.84375 0.81250
vt 0.68750 0.28125
vt 0.75000 0.28125
vt 0.75000 0.81250
vt 0.68750 0.81250
vt 0.78125 0.28125
vt 0.78125 0.81250
vt 0.75000 0.21875
vt 0.78125 0.21875
vt 0.37500 0.28125
vt 0.37500 0.81250
vt 0.34375 0.81250
vt 0.34375 0.28125
vt 0.25000 0.28125
vt 0.25000 0.81250
vt 0.18750 0.81250
vt 0.18750 0.28125
vt 0.28125 0.28125
vt 0.28125 0.81250
vt 0.28125 0.21875
vt 0.31250 0.28125
vt 0.31250 0.21875
vt 0.25000 0.21875
vt 0.15625 0.28125
vt 0.15625 0.81250
vt 0.00000 0.28125
vt 0.06250 0.28125
vt 0.06250 0.81250
vt 0.00000 0.81250
vt 0.09375 0.28125
vt 0.09375 0.81250
vt 0.12500 0.28125
vt 0.12500 0.21875
vt 0.62500 0.28125
vt 0.68750 0.84375
vt 0.62500 0.84375
vt 0.46875 0.28125
vt 0.46875 0.84375
vt 0.37500 0.84375
vt 0.53125 0.28125
vt 0.53125 0.84375
vt 0.46875 0.18750
vt 0.53125 0.18750
vt 0.59375 0.28125
vt 0.59375 0.18750

vn 1.00000 0.00000 0.00000
vn 0.00000 0.00000 -1.00000
vn -1.00000 0.00000 0.00000
vn 0.00000 -1.00000 0.00000
vn 0.00000 0.00000 1.00000
vn 0.00000 1.00000 0.00000

g Hilt
#_color 0.8 0.8 0.8 1
f 4/4/1 3/3/1 2/2/1 1/1/1
f 8/3/2 7/6/2 6/5/2 5/2/2
f 12/6/3 11/8/3 10/7/3 9/5/3
f 16/11/4 15/5/4 14/10/4 13/9/4
f 20/8/5 19/13/5 18/12/5 17/7/5
f 24/17/1 23/16/1 22/15/1 21/14/1
f 28/16/2 27/19/2 26/18/2 25/15/2
f 32/19/3 31/21/3 30/20/3 29/18/3
f 36/24/4 35/18/4 34/23/4 33/22/4
f 40/21/5 39/26/5 38/25/5 37/20/5
f 26/18/6 44/28/6 43/27/6 22/15/6
f 21/31/6 42/30/6 41/29/6 30/23/6
g BladeOff
#_color 0.8 0.8 0.8 1
f 48/35/5 47/34/5 46/33/5 45/32/5
f 52/39/1 51/38/1 50/37/1 49/36/1
f 56/38/2 55/41/2 54/40/2 53/37/2
f 60/41/3 59/35/3 58/32/3 57/40/3
f 64/43/6 63/42/6 62/37/6 61/40/6
g BladeMid
#_color 1 1 1 1
f 66/47/5 67/46/5 68/45/5 65/44/5
f 70/51/1 71/50/1 72/49/1 69/48/1
f 74/48/2 75/49/2 76/53/2 73/52/2
f 78/52/3 79/53/3 80/46/3 77/47/3
f 82/56/4 83/55/4 84/52/4 81/54/4
f 86/57/6 87/48/6 88/52/6 85/54/6
g BladeIn
#_color 1 1 1 1
f 92/59/5 91/50/5 90/51/5 89/58/5
f 96/63/1 95/62/1 94/61/1 93/60/1
f 100/62/2 99/65/2 98/64/2 97/61/2
f 104/65/3 103/59/3 102/58/3 101/64/3
f 108/6/6 107/3/6 106/61/6 105/64/6
f 112/67/4 111/66/4 110/64/4 109/6/4
g BladeOut
#_color 1 1 1 0.5
f 116/70/5 115/69/5 114/36/5 113/68/5
f 120/73/1 119/72/1 118/71/1 117/44/1
f 124/72/2 123/75/2 122/74/2 121/71/2
f 128/75/3 127/70/3 126/68/3 125/74/3
f 132/77/6 131/76/6 130/71/6 129/74/6
f 133/77/4 134/79/4 136/78/4 135/74/4

