# ToLaserBlade
# https://github.com/Iunius118/ToLaserBlade
# Copyright 2021 Iunius118
# This work is licensed under the MIT License.

#_name laser_blade_222.obj
#_texture tolaserblade:textures/item/internal/laser_blade_222.png

v -0.078125 0.468750 -0.078125
v -0.078125 0.468750 0.078125
v -0.078125 0.343750 0.078125
v -0.078125 0.343750 -0.078125
v 0.078125 0.468750 0.078125
v -0.078125 0.468750 0.078125
v -0.078125 0.468750 -0.078125
v 0.078125 0.468750 -0.078125
v -0.078125 0.406250 -0.078125
v -0.078125 0.343750 -0.078125
v 0.078125 0.343750 -0.078125
v 0.078125 0.406250 -0.078125
v 0.078125 0.437500 -0.078125
v 0.078125 0.468750 -0.078125
v -0.078125 0.468750 -0.078125
v -0.078125 0.437500 -0.078125
v -0.015625 0.437500 -0.078125
v -0.015625 0.406250 -0.078125
v 0.015625 0.406250 -0.078125
v 0.015625 0.437500 -0.078125
v 0.078125 0.468750 0.078125
v 0.078125 0.468750 -0.078125
v 0.078125 0.343750 -0.078125
v 0.078125 0.343750 0.078125
v -0.078125 0.468750 0.078125
v 0.078125 0.468750 0.078125
v 0.078125 0.343750 0.078125
v -0.078125 0.343750 0.078125
v 0.078125 0.468750 0.078125
v -0.078125 0.468750 0.078125
v -0.078125 0.468750 -0.078125
v 0.078125 0.468750 -0.078125
v 0.078125 0.343750 -0.078125
v -0.078125 0.343750 -0.078125
v -0.078125 0.343750 0.078125
v 0.078125 0.343750 0.078125
v 0.046875 0.406250 -0.109375
v -0.046875 0.406250 -0.109375
v -0.046875 0.343750 -0.109375
v 0.046875 0.343750 -0.109375
v -0.046875 0.406250 -0.109375
v -0.046875 0.406250 -0.078125
v -0.046875 0.343750 -0.078125
v -0.046875 0.343750 -0.109375
v 0.046875 0.406250 -0.078125
v 0.046875 0.406250 -0.109375
v 0.046875 0.343750 -0.109375
v 0.046875 0.343750 -0.078125
v 0.046875 0.406250 -0.078125
v -0.046875 0.406250 -0.078125
v -0.046875 0.406250 -0.109375
v 0.046875 0.406250 -0.109375
v 0.046875 0.343750 -0.109375
v -0.046875 0.343750 -0.109375
v -0.046875 0.343750 -0.078125
v 0.046875 0.343750 -0.078125
v -0.039062 0.500000 0.015625
v -0.070312 0.500000 0.015625
v -0.070312 0.468750 0.015625
v -0.039062 0.468750 0.015625
v -0.070312 0.500000 0.015625
v -0.070312 0.500000 0.078125
v -0.070312 0.468750 0.078125
v -0.070312 0.468750 0.015625
v -0.070312 0.500000 0.078125
v -0.039062 0.500000 0.078125
v -0.039062 0.468750 0.078125
v -0.070312 0.468750 0.078125
v -0.039062 0.500000 0.078125
v -0.039062 0.500000 0.015625
v -0.039062 0.468750 0.015625
v -0.039062 0.468750 0.078125
v -0.039062 0.500000 0.078125
v -0.070312 0.500000 0.078125
v -0.070312 0.500000 0.015625
v -0.039062 0.500000 0.015625
v 0.070312 0.500000 0.015625
v 0.039062 0.500000 0.015625
v 0.039062 0.468750 0.015625
v 0.070312 0.468750 0.015625
v 0.039062 0.500000 0.015625
v 0.039062 0.500000 0.078125
v 0.039062 0.468750 0.078125
v 0.039062 0.468750 0.015625
v 0.039062 0.500000 0.078125
v 0.070312 0.500000 0.078125
v 0.070312 0.468750 0.078125
v 0.039062 0.468750 0.078125
v 0.070312 0.500000 0.078125
v 0.070312 0.500000 0.015625
v 0.070312 0.468750 0.015625
v 0.070312 0.468750 0.078125
v 0.070312 0.500000 0.078125
v 0.039062 0.500000 0.078125
v 0.039062 0.500000 0.015625
v 0.070312 0.500000 0.015625
v 0.062500 0.406250 0.093750
v -0.062500 0.406250 0.093750
v -0.062500 0.406250 -0.031250
v 0.062500 0.406250 -0.031250
v -0.062500 0.406250 0.093750
v -0.062500 -0.093750 0.093750
v -0.062500 -0.093750 -0.031250
v -0.062500 0.406250 -0.031250
v -0.062500 -0.093750 0.093750
v 0.062500 -0.093750 0.093750
v 0.062500 -0.093750 -0.031250
v -0.062500 -0.093750 -0.031250
v 0.062500 -0.093750 0.093750
v 0.062500 0.406250 0.093750
v 0.062500 0.406250 -0.031250
v 0.062500 -0.093750 -0.031250
v 0.062500 -0.093750 0.093750
v -0.062500 -0.093750 0.093750
v -0.062500 0.406250 0.093750
v 0.062500 0.406250 0.093750
v 0.062500 0.406250 -0.031250
v -0.062500 0.406250 -0.031250
v -0.062500 -0.093750 -0.031250
v 0.062500 -0.093750 -0.031250
v -0.062500 0.390625 -0.281250
v -0.125000 0.390625 -0.281250
v -0.125000 0.328125 -0.281250
v -0.062500 0.328125 -0.281250
v -0.125000 0.390625 -0.281250
v -0.125000 0.390625 0.093750
v -0.125000 0.328125 0.093750
v -0.125000 0.328125 -0.281250
v -0.125000 0.390625 0.093750
v -0.062500 0.390625 0.093750
v -0.062500 0.328125 0.093750
v -0.125000 0.328125 0.093750
v -0.062500 0.390625 0.093750
v -0.062500 0.390625 -0.281250
v -0.062500 0.328125 -0.281250
v -0.062500 0.328125 0.093750
v -0.062500 0.390625 0.093750
v -0.125000 0.390625 0.093750
v -0.125000 0.390625 -0.281250
v -0.062500 0.390625 -0.281250
v -0.062500 0.328125 -0.281250
v -0.125000 0.328125 -0.281250
v -0.125000 0.328125 0.093750
v -0.062500 0.328125 0.093750
v 0.125000 0.390625 -0.281250
v 0.062500 0.390625 -0.281250
v 0.062500 0.328125 -0.281250
v 0.125000 0.328125 -0.281250
v 0.062500 0.390625 -0.281250
v 0.062500 0.390625 0.093750
v 0.062500 0.328125 0.093750
v 0.062500 0.328125 -0.281250
v 0.062500 0.390625 0.093750
v 0.125000 0.390625 0.093750
v 0.125000 0.328125 0.093750
v 0.062500 0.328125 0.093750
v 0.125000 0.390625 0.093750
v 0.125000 0.390625 -0.281250
v 0.125000 0.328125 -0.281250
v 0.125000 0.328125 0.093750
v 0.125000 0.390625 0.093750
v 0.062500 0.390625 0.093750
v 0.062500 0.390625 -0.281250
v 0.125000 0.390625 -0.281250
v 0.125000 0.328125 -0.281250
v 0.062500 0.328125 -0.281250
v 0.062500 0.328125 0.093750
v 0.125000 0.328125 0.093750
v -0.015625 -0.312500 -0.046875
v -0.078125 -0.312500 -0.046875
v -0.078125 -0.312500 0.015625
v -0.015625 -0.312500 0.015625
v -0.078125 -0.312500 -0.046875
v -0.078125 0.000000 -0.046875
v -0.078125 0.000000 0.015625
v -0.078125 -0.312500 0.015625
v -0.078125 0.000000 -0.046875
v -0.015625 0.000000 -0.046875
v -0.015625 0.000000 0.015625
v -0.078125 0.000000 0.015625
v -0.015625 0.000000 -0.046875
v -0.015625 -0.312500 -0.046875
v -0.015625 -0.312500 0.015625
v -0.015625 0.000000 0.015625
v -0.015625 0.000000 -0.046875
v -0.078125 0.000000 -0.046875
v -0.078125 -0.312500 -0.046875
v -0.015625 -0.312500 -0.046875
v -0.015625 -0.312500 0.015625
v -0.078125 -0.312500 0.015625
v -0.078125 0.000000 0.015625
v -0.015625 0.000000 0.015625
v 0.078125 -0.312500 -0.046875
v 0.015625 -0.312500 -0.046875
v 0.015625 -0.312500 0.015625
v 0.078125 -0.312500 0.015625
v 0.015625 -0.312500 -0.046875
v 0.015625 0.000000 -0.046875
v 0.015625 0.000000 0.015625
v 0.015625 -0.312500 0.015625
v 0.015625 0.000000 -0.046875
v 0.078125 0.000000 -0.046875
v 0.078125 0.000000 0.015625
v 0.015625 0.000000 0.015625
v 0.078125 0.000000 -0.046875
v 0.078125 -0.312500 -0.046875
v 0.078125 -0.312500 0.015625
v 0.078125 0.000000 0.015625
v 0.078125 0.000000 -0.046875
v 0.015625 0.000000 -0.046875
v 0.015625 -0.312500 -0.046875
v 0.078125 -0.312500 -0.046875
v 0.078125 -0.312500 0.015625
v 0.015625 -0.312500 0.015625
v 0.015625 0.000000 0.015625
v 0.078125 0.000000 0.015625
v 0.031250 -0.093750 0.406250
v -0.031250 -0.093750 0.406250
v -0.031250 -0.031250 0.406250
v 0.031250 -0.031250 0.406250
v -0.031250 -0.093750 0.406250
v -0.031250 -0.093750 0.093750
v -0.031250 -0.031250 0.093750
v -0.031250 -0.031250 0.406250
v -0.031250 -0.093750 0.093750
v 0.031250 -0.093750 0.093750
v 0.031250 -0.031250 0.093750
v -0.031250 -0.031250 0.093750
v 0.031250 -0.093750 0.093750
v 0.031250 -0.093750 0.406250
v 0.031250 -0.031250 0.406250
v 0.031250 -0.031250 0.093750
v 0.031250 -0.093750 0.093750
v -0.031250 -0.093750 0.093750
v -0.031250 -0.093750 0.406250
v 0.031250 -0.093750 0.406250
v 0.031250 -0.031250 0.406250
v -0.031250 -0.031250 0.406250
v -0.031250 -0.031250 0.093750
v 0.031250 -0.031250 0.093750
v 0.015625 0.437500 -0.078125
v 0.015625 0.406250 -0.078125
v 0.078125 0.406250 -0.078125
v 0.078125 0.437500 -0.078125
v -0.015625 0.437500 -0.078125
v -0.078125 0.437500 -0.078125
v -0.078125 0.406250 -0.078125
v -0.015625 0.406250 -0.078125
v -0.031250 1.375000 0.031250
v 0.031250 1.375000 0.031250
v 0.031250 0.437500 0.031250
v -0.031250 0.437500 0.031250
v 0.031250 1.375000 0.031250
v 0.031250 1.375000 -0.031250
v 0.031250 0.437500 -0.031250
v 0.031250 0.437500 0.031250
v 0.031250 1.375000 -0.031250
v -0.031250 1.375000 -0.031250
v -0.031250 0.437500 -0.031250
v 0.031250 0.437500 -0.031250
v -0.031250 1.375000 -0.031250
v -0.031250 1.375000 0.031250
v -0.031250 0.437500 0.031250
v -0.031250 0.437500 -0.031250
v -0.031250 1.375000 -0.031250
v 0.031250 1.375000 -0.031250
v 0.031250 1.375000 0.031250
v -0.031250 1.375000 0.031250
v 0.031250 0.437500 0.031250
v 0.031250 0.437500 -0.031250
v -0.031250 0.437500 -0.031250
v -0.031250 0.437500 0.031250
v -0.062500 1.406250 0.062500
v 0.062500 1.406250 0.062500
v 0.062500 0.437500 0.062500
v -0.062500 0.437500 0.062500
v 0.062500 1.406250 0.062500
v 0.062500 1.406250 -0.062500
v 0.062500 0.437500 -0.062500
v 0.062500 0.437500 0.062500
v 0.062500 1.406250 -0.062500
v -0.062500 1.406250 -0.062500
v -0.062500 0.437500 -0.062500
v 0.062500 0.437500 -0.062500
v -0.062500 1.406250 -0.062500
v -0.062500 1.406250 0.062500
v -0.062500 0.437500 0.062500
v -0.062500 0.437500 -0.062500
v -0.062500 1.406250 -0.062500
v 0.062500 1.406250 -0.062500
v 0.062500 1.406250 0.062500
v -0.062500 1.406250 0.062500
v 0.062500 0.437500 0.062500
v -0.062500 0.437500 0.062500
v 0.062500 0.437500 -0.062500
v -0.062500 0.437500 -0.062500
v -0.093750 1.437500 0.093750
v 0.093750 1.437500 0.093750
v 0.093750 0.437500 0.093750
v -0.093750 0.437500 0.093750
v 0.093750 1.437500 0.093750
v 0.093750 1.437500 -0.093750
v 0.093750 0.437500 -0.093750
v 0.093750 0.437500 0.093750
v 0.093750 1.437500 -0.093750
v -0.093750 1.437500 -0.093750
v -0.093750 0.437500 -0.093750
v 0.093750 0.437500 -0.093750
v -0.093750 1.437500 -0.093750
v -0.093750 1.437500 0.093750
v -0.093750 0.437500 0.093750
v -0.093750 0.437500 -0.093750
v -0.093750 1.437500 -0.093750
v 0.093750 1.437500 -0.093750
v 0.093750 1.437500 0.093750
v -0.093750 1.437500 0.093750
v -0.093750 0.437500 0.093750
v 0.093750 0.437500 0.093750
v 0.093750 0.437500 -0.093750
v -0.093750 0.437500 -0.093750

vt 0.31250 0.15625
vt 0.46875 0.15625
vt 0.46875 0.28125
vt 0.31250 0.28125
vt 0.31250 0.21875
vt 0.15625 0.28125
vt 0.15625 0.21875
vt 0.15625 0.18750
vt 0.15625 0.15625
vt 0.31250 0.18750
vt 0.25000 0.18750
vt 0.25000 0.21875
vt 0.21875 0.21875
vt 0.21875 0.18750
vt 0.00000 0.15625
vt 0.00000 0.28125
vt 0.62500 0.15625
vt 0.62500 0.28125
vt 0.15625 0.00000
vt 0.31250 0.00000
vt 0.46875 0.00000
vt 0.03125 0.31250
vt 0.12500 0.31250
vt 0.12500 0.37500
vt 0.03125 0.37500
vt 0.15625 0.31250
vt 0.15625 0.37500
vt 0.00000 0.31250
vt 0.00000 0.37500
vt 0.03125 0.28125
vt 0.12500 0.28125
vt 0.21875 0.31250
vt 0.21875 0.28125
vt 0.87500 0.06250
vt 0.90625 0.06250
vt 0.90625 0.09375
vt 0.87500 0.09375
vt 0.96875 0.06250
vt 0.96875 0.09375
vt 1.00000 0.06250
vt 1.00000 0.09375
vt 0.81250 0.06250
vt 0.81250 0.09375
vt 0.87500 0.00000
vt 0.90625 0.00000
vt 0.68750 0.06250
vt 0.71875 0.06250
vt 0.71875 0.09375
vt 0.68750 0.09375
vt 0.78125 0.06250
vt 0.78125 0.09375
vt 0.62500 0.06250
vt 0.62500 0.09375
vt 0.68750 0.00000
vt 0.71875 0.00000
vt 0.06250 0.37500
vt 0.12500 0.43750
vt 0.06250 0.43750
vt 0.18750 0.43750
vt 0.18750 0.68750
vt 0.12500 0.68750
vt 0.18750 0.37500
vt 0.00000 0.68750
vt 0.00000 0.43750
vt 0.06250 0.68750
vt 0.25000 0.68750
vt 0.25000 0.43750
vt 0.18750 0.71875
vt 0.21875 0.71875
vt 0.21875 0.68750
vt 0.18750 0.90625
vt 0.21875 0.90625
vt 0.15625 0.71875
vt 0.15625 0.68750
vt 0.15625 0.90625
vt 0.12500 0.90625
vt 0.12500 0.71875
vt 0.25000 0.90625
vt 0.25000 0.71875
vt 0.06250 0.71875
vt 0.09375 0.71875
vt 0.09375 0.68750
vt 0.06250 0.90625
vt 0.09375 0.90625
vt 0.03125 0.71875
vt 0.03125 0.68750
vt 0.03125 0.90625
vt 0.00000 0.90625
vt 0.00000 0.71875
vt 0.81250 0.12500
vt 0.84375 0.12500
vt 0.84375 0.09375
vt 0.81250 0.28125
vt 0.84375 0.28125
vt 0.78125 0.12500
vt 0.78125 0.28125
vt 0.75000 0.28125
vt 0.75000 0.12500
vt 0.87500 0.28125
vt 0.87500 0.12500
vt 0.68750 0.12500
vt 0.71875 0.12500
vt 0.68750 0.28125
vt 0.71875 0.28125
vt 0.65625 0.12500
vt 0.65625 0.09375
vt 0.65625 0.28125
vt 0.62500 0.12500
vt 0.93750 0.12500
vt 0.96875 0.12500
vt 0.93750 0.09375
vt 0.93750 0.28125
vt 0.96875 0.28125
vt 0.90625 0.12500
vt 0.90625 0.28125
vt 1.00000 0.28125
vt 1.00000 0.12500
vt 0.34375 0.37500
vt 0.37500 0.37500
vt 0.37500 0.84375
vt 0.34375 0.84375
vt 0.25000 0.37500
vt 0.28125 0.37500
vt 0.28125 0.84375
vt 0.25000 0.84375
vt 0.31250 0.37500
vt 0.31250 0.84375
vt 0.28125 0.34375
vt 0.31250 0.34375
vt 0.34375 0.34375
vt 0.56250 0.37500
vt 0.62500 0.37500
vt 0.62500 0.87500
vt 0.56250 0.87500
vt 0.43750 0.37500
vt 0.43750 0.87500
vt 0.37500 0.87500
vt 0.50000 0.37500
vt 0.50000 0.87500
vt 0.43750 0.31250
vt 0.50000 0.31250
vt 0.56250 0.31250
vt 0.90625 0.37500
vt 1.00000 0.37500
vt 1.00000 0.90625
vt 0.90625 0.90625
vt 0.71875 0.37500
vt 0.71875 0.90625
vt 0.62500 0.90625
vt 0.81250 0.37500
vt 0.81250 0.90625

vn -1.00000 0.00000 0.00000
vn 0.00000 1.00000 0.00000
vn 0.00000 0.00000 -1.00000
vn 1.00000 0.00000 0.00000
vn 0.00000 0.00000 1.00000
vn 0.00000 -1.00000 0.00000

g Hilt
#_color 0.8 0.8 0.8 1
f 4/4/1 3/3/1 2/2/1 1/1/1
f 8/4/2 7/3/2 6/2/2 5/1/2
f 12/7/3 11/6/3 10/4/3 9/5/3
f 16/10/3 15/1/3 14/9/3 13/8/3
f 20/14/3 19/13/3 18/12/3 17/11/3
f 24/16/4 23/6/4 22/9/4 21/15/4
f 28/3/5 27/18/5 26/17/5 25/2/5
f 32/9/2 31/1/2 30/20/2 29/19/2
f 36/20/6 35/21/6 34/2/6 33/1/6
f 40/25/3 39/24/3 38/23/3 37/22/3
f 44/24/1 43/27/1 42/26/1 41/23/1
f 48/29/4 47/25/4 46/22/4 45/28/4
f 52/22/2 51/23/2 50/31/2 49/30/2
f 56/31/6 55/33/6 54/32/6 53/23/6
f 60/37/3 59/36/3 58/35/3 57/34/3
f 64/36/1 63/39/1 62/38/1 61/35/1
f 68/39/5 67/41/5 66/40/5 65/38/5
f 72/43/4 71/37/4 70/34/4 69/42/4
f 76/34/2 75/35/2 74/45/2 73/44/2
f 80/49/3 79/48/3 78/47/3 77/46/3
f 84/48/1 83/51/1 82/50/1 81/47/1
f 88/51/5 87/43/5 86/42/5 85/50/5
f 92/53/4 91/49/4 90/46/4 89/52/4
f 96/46/2 95/47/2 94/55/2 93/54/2
f 100/58/2 99/57/2 98/24/2 97/56/2
f 104/57/1 103/61/1 102/60/1 101/59/1
f 108/59/6 107/57/6 106/24/6 105/62/6
f 112/65/4 111/58/4 110/64/4 109/63/4
f 116/67/5 115/59/5 114/60/5 113/66/5
f 120/65/3 119/61/3 118/57/3 117/58/3
f 124/60/3 123/70/3 122/69/3 121/68/3
f 128/72/1 127/69/1 126/68/1 125/71/1
f 132/60/5 131/74/5 130/73/5 129/68/5
f 136/77/4 135/76/4 134/75/4 133/73/4
f 140/75/2 139/71/2 138/68/2 137/73/2
f 144/79/6 143/69/6 142/72/6 141/78/6
f 148/65/3 147/82/3 146/81/3 145/80/3
f 152/84/1 151/81/1 150/80/1 149/83/1
f 156/65/5 155/86/5 154/85/5 153/80/5
f 160/89/4 159/88/4 158/87/4 157/85/4
f 164/87/2 163/83/2 162/80/2 161/85/2
f 168/77/6 167/81/6 166/84/6 165/76/6
f 172/43/6 171/92/6 170/91/6 169/90/6
f 176/94/1 175/91/1 174/90/1 173/93/1
f 180/43/2 179/51/2 178/95/2 177/90/2
f 184/98/4 183/97/4 182/96/4 181/95/4
f 188/96/3 187/93/3 186/90/3 185/95/3
f 192/100/5 191/91/5 190/94/5 189/99/5
f 196/49/6 195/48/6 194/102/6 193/101/6
f 200/104/1 199/102/1 198/101/1 197/103/1
f 204/49/2 203/106/2 202/105/2 201/101/2
f 208/108/4 207/18/4 206/107/4 205/105/4
f 212/107/3 211/103/3 210/101/3 209/105/3
f 216/98/5 215/102/5 214/104/5 213/97/5
f 220/111/5 219/39/5 218/110/5 217/109/5
f 224/113/1 223/110/1 222/109/1 221/112/1
f 228/111/3 227/36/3 226/114/3 225/109/3
f 232/100/4 231/99/4 230/115/4 229/114/4
f 236/115/6 235/112/6 234/109/6 233/114/6
f 240/117/2 239/110/2 238/113/2 237/116/2
g HiltLight
#_color 1 1 1 1
f 244/8/3 243/7/3 242/13/3 241/14/3
f 248/12/3 247/5/3 246/10/3 245/11/3
g BladeIn
#_color 1 1 1 0.9
f 252/121/5 251/120/5 250/119/5 249/118/5
f 256/125/4 255/124/4 254/123/4 253/122/4
f 260/124/3 259/127/3 258/126/3 257/123/3
f 264/127/1 263/121/1 262/118/1 261/126/1
f 268/129/2 267/128/2 266/123/2 265/126/2
f 272/130/6 271/118/6 270/126/6 269/129/6
g BladeMid
#_color 1 1 1 0.5
f 276/134/5 275/133/5 274/132/5 273/131/5
f 280/137/4 279/136/4 278/135/4 277/119/4
f 284/136/3 283/139/3 282/138/3 281/135/3
f 288/139/1 287/134/1 286/131/1 285/138/1
f 292/141/2 291/140/2 290/135/2 289/138/2
f 293/141/6 294/142/6 296/131/6 295/138/6
g BladeOut
#_color 1 1 1 0.25
f 300/146/5 299/145/5 298/144/5 297/143/5
f 304/149/4 303/148/4 302/147/4 301/132/4
f 308/148/3 307/151/3 306/150/3 305/147/3
f 312/151/1 311/146/1 310/143/1 309/150/1
f 316/93/2 315/104/2 314/147/2 313/150/2
f 320/143/6 319/150/6 318/93/6 317/115/6

