mtllib laser_blade.mtl

o laser_blade
# Object laser_blade

v 0.093750 0.375000 -0.093750
v 0.093750 0.375000 0.093750
v 0.062550 0.375000 0.062450
v 0.062550 0.375000 -0.062550
v -0.093750 0.375000 -0.093750
v 0.093750 0.375000 -0.093750
v 0.062550 0.375000 -0.062550
v -0.062450 0.375000 -0.062550
v 0.093750 0.375000 0.093750
v -0.093750 0.375000 0.093750
v -0.062450 0.375000 0.062450
v 0.062550 0.375000 0.062450
v -0.093750 0.375000 -0.093750
v -0.062450 0.375000 -0.062550
v -0.062450 0.375000 0.062450
v -0.093750 0.375000 0.093750
v -0.093750 0.375000 0.093750
v 0.093750 0.375000 0.093750
v 0.093750 0.312500 0.093750
v -0.093750 0.312500 0.093750
v 0.093750 0.375000 0.093750
v 0.093750 0.375000 -0.093750
v 0.093750 0.312500 -0.093750
v 0.093750 0.312500 0.093750
v 0.093750 0.375000 -0.093750
v -0.093750 0.375000 -0.093750
v -0.093750 0.312500 -0.093750
v 0.093750 0.312500 -0.093750
v -0.093750 0.375000 -0.093750
v -0.093750 0.375000 0.093750
v -0.093750 0.312500 0.093750
v -0.093750 0.312500 -0.093750
v -0.093750 0.312500 0.093750
v 0.093750 0.312500 0.093750
v 0.093750 0.312500 -0.093750
v -0.093750 0.312500 -0.093750
v -0.031250 0.312500 0.031250
v 0.031250 0.312500 0.031250
v 0.031250 0.000000 0.031250
v -0.031250 0.000000 0.031250
v 0.031250 0.312500 0.031250
v 0.031250 0.312500 -0.031250
v 0.031250 0.000000 -0.031250
v 0.031250 0.000000 0.031250
v 0.031250 0.312500 -0.031250
v -0.031250 0.312500 -0.031250
v -0.031250 0.000000 -0.031250
v 0.031250 0.000000 -0.031250
v -0.031250 0.312500 -0.031250
v -0.031250 0.312500 0.031250
v -0.031250 0.000000 0.031250
v -0.031250 0.000000 -0.031250
v -0.031250 0.000000 0.031250
v 0.031250 0.000000 0.031250
v 0.031250 0.000000 -0.031250
v -0.031250 0.000000 -0.031250
v -0.062400 0.375000 0.062400
v 0.062600 0.375000 0.062400
v 0.062600 0.375000 -0.062600
v -0.062400 0.375000 -0.062600
v -0.031200 1.375000 0.031200
v 0.031300 1.375000 0.031200
v 0.031300 0.375000 0.031200
v -0.031200 0.375000 0.031200
v 0.031300 1.375000 0.031200
v 0.031300 1.375000 -0.031300
v 0.031300 0.375000 -0.031300
v 0.031300 0.375000 0.031200
v 0.031300 1.375000 -0.031300
v -0.031200 1.375000 -0.031300
v -0.031200 0.375000 -0.031300
v 0.031300 0.375000 -0.031300
v -0.031200 1.375000 -0.031300
v -0.031200 1.375000 0.031200
v -0.031200 0.375000 0.031200
v -0.031200 0.375000 -0.031300
v -0.031200 1.375000 -0.031300
v 0.031300 1.375000 -0.031300
v 0.031300 1.375000 0.031200
v -0.031200 1.375000 0.031200
v 0.031300 0.375000 0.031200
v 0.031300 0.375000 -0.031300
v -0.031200 0.375000 -0.031300
v -0.031200 0.375000 0.031200
v -0.062450 1.406300 0.062450
v 0.062550 1.406300 0.062450
v 0.062550 0.343700 0.062450
v -0.062450 0.343700 0.062450
v 0.062550 1.406300 0.062450
v 0.062550 1.406300 -0.062550
v 0.062550 0.343700 -0.062550
v 0.062550 0.343700 0.062450
v 0.062550 1.406300 -0.062550
v -0.062450 1.406300 -0.062550
v -0.062450 0.343700 -0.062550
v 0.062550 0.343700 -0.062550
v -0.062450 1.406300 -0.062550
v -0.062450 1.406300 0.062450
v -0.062450 0.343700 0.062450
v -0.062450 0.343700 -0.062550
v -0.062450 1.406300 -0.062550
v 0.062550 1.406300 -0.062550
v 0.062550 1.406300 0.062450
v -0.062450 1.406300 0.062450
v -0.093700 1.437500 0.093700
v 0.093800 1.437500 0.093700
v 0.093800 0.375000 0.093700
v -0.093700 0.375000 0.093700
v 0.093800 1.437500 0.093700
v 0.093800 1.437500 -0.093800
v 0.093800 0.375000 -0.093800
v 0.093800 0.375000 0.093700
v 0.093800 1.437500 -0.093800
v -0.093700 1.437500 -0.093800
v -0.093700 0.375000 -0.093800
v 0.093800 0.375000 -0.093800
v -0.093700 1.437500 -0.093800
v -0.093700 1.437500 0.093700
v -0.093700 0.375000 0.093700
v -0.093700 0.375000 -0.093800
v -0.093700 1.437500 -0.093800
v 0.093800 1.437500 -0.093800
v 0.093800 1.437500 0.093700
v -0.093700 1.437500 0.093700
v -0.093700 0.375000 0.093700
v 0.093800 0.375000 0.093700
v 0.093800 0.375000 -0.093800
v -0.093700 0.375000 -0.093800

vt 0.81250 0.56250
vt 0.81250 0.37500
vt 0.84375 0.40625
vt 0.84375 0.53125
vt 1.00000 0.56250
vt 0.96875 0.53125
vt 1.00000 0.37500
vt 0.96875 0.40625
vt 0.81250 0.81250
vt 1.00000 0.81250
vt 1.00000 0.87500
vt 0.81250 0.87500
vt 0.62500 0.56250
vt 0.81250 0.62500
vt 0.62500 0.62500
vt 1.00000 0.62500
vt 0.62500 0.81250
vt 0.62500 0.87500
vt 0.81250 0.06250
vt 0.87500 0.06250
vt 0.87500 0.37500
vt 0.62500 0.06250
vt 0.68750 0.06250
vt 0.68750 0.37500
vt 0.62500 0.37500
vt 0.75000 0.06250
vt 0.75000 0.37500
vt 0.81250 0.00000
vt 0.75000 0.00000
vt 0.18750 0.00000
vt 0.25000 0.00000
vt 0.25000 1.00000
vt 0.18750 1.00000
vt 0.00000 0.00000
vt 0.06250 0.00000
vt 0.06250 1.00000
vt 0.00000 1.00000
vt 0.12500 0.00000
vt 0.12500 1.00000
vt 0.31250 0.06250
vt 0.25000 0.06250
vt 0.31250 0.00000
vt 0.25000 0.12500
vt 0.31250 0.12500
vt 0.50000 0.00000
vt 0.56250 0.00000
vt 0.56250 1.00000
vt 0.50000 1.00000
vt 0.37500 0.00000
vt 0.37500 1.00000
vt 0.31250 1.00000
vt 0.43750 0.00000
vt 0.43750 1.00000
vt 0.56250 0.06250
vt 0.62500 0.00000
vt 0.56250 0.94444
vt 0.50000 0.94444
vt 0.37500 0.94444
vt 0.31250 0.94444
vt 0.43750 0.94444
vt 0.56250 0.12500
vt 0.62500 0.12500

vn 0.00000 1.00000 0.00000
vn 0.00000 0.00000 1.00000
vn 1.00000 0.00000 0.00000
vn 0.00000 0.00000 -1.00000
vn -1.00000 0.00000 0.00000
vn 0.00000 -1.00000 0.00000

g hilt
# Group hilt: normal rendering
usemtl mat_hilt
f 4/4/1 3/3/1 2/2/1 1/1/1
f 8/6/1 7/4/1 6/1/1 5/5/1
f 12/3/1 11/8/1 10/7/1 9/2/1
f 16/7/1 15/8/1 14/6/1 13/5/1
f 20/12/2 19/11/2 18/10/2 17/9/2
f 24/15/3 23/14/3 22/1/3 21/13/3
f 28/14/4 27/16/4 26/5/4 25/1/4
f 32/18/5 31/12/5 30/9/5 29/17/5
f 36/9/6 35/17/6 34/15/6 33/14/6
f 40/2/2 39/21/2 38/20/2 37/19/2
f 44/25/3 43/24/3 42/23/3 41/22/3
f 48/24/4 47/27/4 46/26/4 45/23/4
f 52/27/5 51/2/5 50/19/5 49/26/5
f 56/19/6 55/26/6 54/29/6 53/28/6
f 58/3/1 59/4/1 60/6/1 57/8/1

g hilt_no_tint
# Group hilt_no_tint: normal rendering, without tint, after hilt
usemtl mat_hilt

g hilt_light
# Group hilt_light: light emissive rendering, without tint, after hilt_no_tint
usemtl mat_hilt_light

g blade_inner
# Group blade_inner: additive rendering, after hilt_light
usemtl mat_blade_inner
f 64/33/2 63/32/2 62/31/2 61/30/2
f 68/37/3 67/36/3 66/35/3 65/34/3
f 72/36/4 71/39/4 70/38/4 69/35/4
f 76/39/5 75/33/5 74/30/5 73/38/5
f 80/42/1 79/31/1 78/41/1 77/40/1
f 84/40/6 83/44/6 82/43/6 81/41/6

g blade_outer_1
# Group blade_outer_1: additive rendering, after blade_inner
usemtl mat_blade_outer_1
f 88/48/2 87/47/2 86/46/2 85/45/2
f 92/51/3 91/50/3 90/49/3 89/42/3
f 96/50/4 95/53/4 94/52/4 93/49/4
f 100/53/5 99/48/5 98/45/5 97/52/5
f 104/55/1 103/46/1 102/54/1 101/22/1

g blade_outer_2
# Group blade_outer_2: additive rendering, after blade_outer_1
usemtl mat_blade_outer_2
f 108/57/2 107/56/2 106/46/2 105/45/2
f 112/59/3 111/58/3 110/49/3 109/42/3
f 116/58/4 115/60/4 114/52/4 113/49/4
f 120/60/5 119/57/5 118/45/5 117/52/5
f 124/55/1 123/46/1 122/54/1 121/22/1
f 128/62/6 127/61/6 126/54/6 125/22/6

