# ToLaserBlade
# https://github.com/Iunius118/ToLaserBlade
# Copyright 2020 Iunius118
# This work is licensed under the MIT License.

#_name laser_blade_903.obj
#_texture tolaserblade:textures/item/internal/laser_blade_903.png

v 0.031250 0.312500 0.062500
v 0.031250 0.312500 -0.062500
v 0.031250 0.000000 -0.062500
v 0.031250 0.000000 0.062500
v 0.031250 0.312500 -0.062500
v -0.031250 0.312500 -0.062500
v -0.031250 0.000000 -0.062500
v 0.031250 0.000000 -0.062500
v -0.031250 0.312500 -0.062500
v -0.031250 0.312500 0.062500
v -0.031250 0.000000 0.062500
v -0.031250 0.000000 -0.062500
v -0.031250 0.312500 0.062500
v 0.031250 0.312500 0.062500
v 0.031250 0.000000 0.062500
v -0.031250 0.000000 0.062500
v 0.093750 0.375000 0.093750
v 0.093750 0.375000 -0.093750
v 0.093750 0.312500 -0.093750
v 0.093750 0.312500 0.093750
v 0.093750 0.375000 -0.093750
v -0.093750 0.375000 -0.093750
v -0.093750 0.312500 -0.093750
v 0.093750 0.312500 -0.093750
v -0.093750 0.375000 -0.093750
v -0.093750 0.375000 0.093750
v -0.093750 0.312500 0.093750
v -0.093750 0.312500 -0.093750
v -0.093750 0.312500 0.093750
v 0.093750 0.312500 0.093750
v 0.093750 0.312500 -0.093750
v -0.093750 0.312500 -0.093750
v -0.093750 0.375000 0.093750
v 0.093750 0.375000 0.093750
v 0.093750 0.312500 0.093750
v -0.093750 0.312500 0.093750
v 0.031250 -0.062500 0.062500
v -0.031250 -0.062500 0.062500
v 0.031250 -0.062500 -0.062500
v 0.031250 -0.062500 0.062500
v -0.031250 -0.062500 -0.062500
v 0.031250 -0.062500 -0.062500
v -0.031250 -0.062500 0.062500
v -0.031250 -0.062500 -0.062500
v -0.031250 0.000000 0.062500
v 0.031250 0.000000 0.062500
v 0.031250 0.000000 0.062500
v 0.031250 0.000000 -0.062500
v 0.031250 0.000000 -0.062500
v -0.031250 0.000000 -0.062500
v -0.031250 0.000000 -0.062500
v -0.031250 0.000000 0.062500
v -0.031250 -0.062500 0.062500
v 0.031250 -0.062500 0.062500
v 0.031250 -0.062500 -0.062500
v -0.031250 -0.062500 -0.062500
v 0.031250 0.375000 0.062500
v -0.031250 0.375000 0.062500
v 0.031250 0.375000 -0.062500
v 0.031250 0.375000 0.062500
v -0.031250 0.375000 -0.062500
v 0.031250 0.375000 -0.062500
v -0.031250 0.375000 0.062500
v -0.031250 0.375000 -0.062500
v -0.031250 0.437500 0.062500
v 0.031250 0.437500 0.062500
v 0.031250 0.437500 0.062500
v 0.031250 0.437500 -0.062500
v 0.031250 0.437500 -0.062500
v -0.031250 0.437500 -0.062500
v -0.031250 0.437500 -0.062500
v -0.031250 0.437500 0.062500
v -0.031250 1.437500 0.062500
v 0.031250 1.437500 0.062500
v 0.031250 1.437500 0.062500
v 0.031250 1.437500 -0.062500
v 0.031250 1.437500 -0.062500
v -0.031250 1.437500 -0.062500
v -0.031250 1.437500 -0.062500
v -0.031250 1.437500 0.062500
v -0.031250 1.437500 -0.062500
v 0.031250 1.437500 -0.062500
v 0.031250 1.437500 0.062500
v -0.031250 1.437500 0.062500
v -0.031250 0.437500 0.062500
v 0.031250 0.437500 0.062500
v 0.031250 0.437500 0.062500
v 0.031250 0.437500 -0.062500
v 0.031250 0.437500 -0.062500
v -0.031250 0.437500 -0.062500
v -0.031250 0.437500 -0.062500
v -0.031250 0.437500 0.062500
v 0.031250 1.437500 -0.062500
v -0.031250 1.437500 -0.062500
v -0.031250 0.437500 -0.062500
v 0.031250 0.437500 -0.062500
v -0.031250 1.437500 -0.062500
v -0.031250 1.437500 0.062500
v -0.031250 0.437500 0.062500
v -0.031250 0.437500 -0.062500
v -0.031250 1.437500 0.062500
v 0.031250 1.437500 0.062500
v 0.031250 0.437500 0.062500
v -0.031250 0.437500 0.062500
v 0.031250 1.437500 0.062500
v 0.031250 1.437500 -0.062500
v 0.031250 0.437500 -0.062500
v 0.031250 0.437500 0.062500
v 0.031250 1.437500 0.062500
v -0.031250 1.437500 0.062500
v -0.031250 1.437500 -0.062500
v 0.031250 1.437500 -0.062500
v -0.031250 0.437500 0.062500
v 0.031250 0.437500 0.062500
v 0.031250 0.437500 -0.062500
v -0.031250 0.437500 -0.062500
v -0.025000 1.431250 0.050000
v 0.025000 1.431250 0.050000
v 0.025000 0.443750 0.050000
v -0.025000 0.443750 0.050000
v 0.025000 1.431250 0.050000
v 0.025000 1.431250 -0.050000
v 0.025000 0.443750 -0.050000
v 0.025000 0.443750 0.050000
v 0.025000 1.431250 -0.050000
v -0.025000 1.431250 -0.050000
v -0.025000 0.443750 -0.050000
v 0.025000 0.443750 -0.050000
v -0.025000 1.431250 -0.050000
v -0.025000 1.431250 0.050000
v -0.025000 0.443750 0.050000
v -0.025000 0.443750 -0.050000
v -0.025000 1.431250 -0.050000
v 0.025000 1.431250 -0.050000
v 0.025000 1.431250 0.050000
v -0.025000 1.431250 0.050000
v 0.025000 0.443750 0.050000
v 0.025000 0.443750 -0.050000
v -0.025000 0.443750 -0.050000
v -0.025000 0.443750 0.050000
v -0.062500 1.468750 0.093750
v 0.062500 1.468750 0.093750
v 0.062500 0.406250 0.093750
v -0.062500 0.406250 0.093750
v 0.062500 1.468750 0.093750
v 0.062500 1.468750 -0.093750
v 0.062500 0.406250 -0.093750
v 0.062500 0.406250 0.093750
v 0.062500 1.468750 -0.093750
v -0.062500 1.468750 -0.093750
v -0.062500 0.406250 -0.093750
v 0.062500 0.406250 -0.093750
v -0.062500 1.468750 -0.093750
v -0.062500 1.468750 0.093750
v -0.062500 0.406250 0.093750
v -0.062500 0.406250 -0.093750
v -0.062500 1.468750 -0.093750
v 0.062500 1.468750 -0.093750
v 0.062500 1.468750 0.093750
v -0.062500 1.468750 0.093750
v 0.062500 0.406250 0.093750
v -0.062500 0.406250 0.093750
v 0.062500 0.406250 -0.093750
v -0.062500 0.406250 -0.093750

vt 0.00000 0.06250
vt 0.06250 0.06250
vt 0.06250 0.21875
vt 0.00000 0.21875
vt 0.09375 0.06250
vt 0.09375 0.21875
vt 0.15625 0.06250
vt 0.15625 0.21875
vt 0.18750 0.06250
vt 0.18750 0.21875
vt 0.18750 0.09375
vt 0.28125 0.09375
vt 0.28125 0.12500
vt 0.18750 0.12500
vt 0.37500 0.09375
vt 0.37500 0.12500
vt 0.46875 0.09375
vt 0.46875 0.12500
vt 0.46875 0.00000
vt 0.37500 0.00000
vt 0.56250 0.09375
vt 0.56250 0.12500
vt 0.28125 0.00000
vt 0.93750 0.06250
vt 0.93750 0.09375
vt 0.90625 0.09375
vt 0.90625 0.06250
vt 0.81250 0.06250
vt 0.81250 0.09375
vt 0.75000 0.09375
vt 0.75000 0.06250
vt 0.84375 0.06250
vt 0.84375 0.09375
vt 0.87500 0.00000
vt 0.84375 0.00000
vt 0.87500 0.06250
vt 0.71875 0.09375
vt 0.71875 0.06250
vt 0.62500 0.06250
vt 0.62500 0.09375
vt 0.56250 0.06250
vt 0.65625 0.06250
vt 0.65625 0.09375
vt 0.78125 0.28125
vt 0.75000 0.28125
vt 0.75000 0.21875
vt 0.78125 0.21875
vt 0.87500 0.78125
vt 0.84375 0.78125
vt 0.84375 0.28125
vt 0.87500 0.28125
vt 0.75000 0.78125
vt 0.68750 0.78125
vt 0.68750 0.28125
vt 0.78125 0.78125
vt 0.37500 0.28125
vt 0.37500 0.78125
vt 0.34375 0.78125
vt 0.34375 0.28125
vt 0.25000 0.28125
vt 0.25000 0.78125
vt 0.18750 0.78125
vt 0.18750 0.28125
vt 0.28125 0.28125
vt 0.28125 0.78125
vt 0.28125 0.21875
vt 0.31250 0.28125
vt 0.31250 0.21875
vt 0.25000 0.21875
vt 0.15625 0.28125
vt 0.15625 0.78125
vt 0.00000 0.28125
vt 0.06250 0.28125
vt 0.06250 0.78125
vt 0.00000 0.78125
vt 0.09375 0.28125
vt 0.09375 0.78125
vt 0.12500 0.28125
vt 0.12500 0.21875
vt 0.62500 0.28125
vt 0.68750 0.81250
vt 0.62500 0.81250
vt 0.46875 0.28125
vt 0.46875 0.81250
vt 0.37500 0.81250
vt 0.53125 0.28125
vt 0.53125 0.81250
vt 0.46875 0.18750
vt 0.53125 0.18750
vt 0.59375 0.28125
vt 0.59375 0.18750

vn 1.00000 0.00000 0.00000
vn 0.00000 0.00000 -1.00000
vn -1.00000 0.00000 0.00000
vn 0.00000 0.00000 1.00000
vn 0.00000 -1.00000 0.00000
vn 0.00000 1.00000 0.00000

g Hilt
#_color 0.8 0.8 0.8 1
f 4/4/1 3/3/1 2/2/1 1/1/1
f 8/3/2 7/6/2 6/5/2 5/2/2
f 12/6/3 11/8/3 10/7/3 9/5/3
f 16/8/4 15/10/4 14/9/4 13/7/4
f 20/14/1 19/13/1 18/12/1 17/11/1
f 24/13/2 23/16/2 22/15/2 21/12/2
f 28/16/3 27/18/3 26/17/3 25/15/3
f 32/17/5 31/15/5 30/20/5 29/19/5
f 36/18/4 35/22/4 34/21/4 33/17/4
f 17/23/6 18/12/6 22/15/6 26/20/6
g HiltNoTint
#_color 0.8 0.8 0.8 1
f 45/27/4 38/26/4 37/25/4 46/24/4
f 47/31/1 40/30/1 39/29/1 48/28/1
f 49/28/2 42/29/2 41/33/2 50/32/2
f 51/32/3 44/33/3 43/26/3 52/27/3
f 56/36/5 55/32/5 54/35/5 53/34/5
f 65/38/4 58/37/4 57/30/4 66/31/4
f 67/41/1 60/21/1 59/40/1 68/39/1
f 69/39/2 62/40/2 61/43/2 70/42/2
f 71/42/3 64/43/3 63/37/3 72/38/3
g BladeOff
#_color 0.8 0.8 0.8 1
f 84/47/6 83/46/6 82/45/6 81/44/6
f 74/51/4 73/50/4 85/49/4 86/48/4
f 76/45/1 75/54/1 87/53/1 88/52/1
f 78/44/2 77/45/2 89/52/2 90/55/2
f 80/50/3 79/44/3 91/55/3 92/49/3
g BladeMid
#_color 1 1 1 1
f 94/59/4 95/58/4 96/57/4 93/56/4
f 98/63/1 99/62/1 100/61/1 97/60/1
f 102/60/2 103/61/2 104/65/2 101/64/2
f 106/64/3 107/65/3 108/58/3 105/59/3
f 110/68/5 111/67/5 112/64/5 109/66/5
f 114/69/6 115/60/6 116/64/6 113/66/6
g BladeIn
#_color 1 1 1 1
f 120/71/4 119/62/4 118/63/4 117/70/4
f 124/75/1 123/74/1 122/73/1 121/72/1
f 128/74/2 127/77/2 126/76/2 125/73/2
f 132/77/3 131/71/3 130/70/3 129/76/3
f 136/6/6 135/3/6 134/73/6 133/76/6
f 140/79/5 139/78/5 138/76/5 137/6/5
g BladeOut
#_color 1 1 1 0.5
f 144/82/4 143/81/4 142/54/4 141/80/4
f 148/85/1 147/84/1 146/83/1 145/56/1
f 152/84/2 151/87/2 150/86/2 149/83/2
f 156/87/3 155/82/3 154/80/3 153/86/3
f 160/89/6 159/88/6 158/83/6 157/86/6
f 161/89/5 162/91/5 164/90/5 163/86/5

