# ToLaserBlade
# https://github.com/Iunius118/ToLaserBlade
# Copyright 2020 Iunius118
# This work is licensed under the MIT License.

#_name laser_blade_1.obj
#_texture tolaserblade:textures/item/internal/laser_blade_1.png

v 0.093750 0.375000 -0.093750
v 0.093750 0.375000 0.093750
v 0.062500 0.375000 0.062500
v 0.062500 0.375000 -0.062500
v -0.093750 0.375000 -0.093750
v 0.093750 0.375000 -0.093750
v 0.062500 0.375000 -0.062500
v -0.062500 0.375000 -0.062500
v 0.093750 0.375000 0.093750
v -0.093750 0.375000 0.093750
v -0.062500 0.375000 0.062500
v 0.062500 0.375000 0.062500
v -0.093750 0.375000 -0.093750
v -0.062500 0.375000 -0.062500
v -0.062500 0.375000 0.062500
v -0.093750 0.375000 0.093750
v -0.093750 0.375000 0.093750
v 0.093750 0.375000 0.093750
v 0.093750 0.312500 0.093750
v -0.093750 0.312500 0.093750
v 0.093750 0.375000 0.093750
v 0.093750 0.375000 -0.093750
v 0.093750 0.312500 -0.093750
v 0.093750 0.312500 0.093750
v 0.093750 0.375000 -0.093750
v -0.093750 0.375000 -0.093750
v -0.093750 0.312500 -0.093750
v 0.093750 0.312500 -0.093750
v -0.093750 0.375000 -0.093750
v -0.093750 0.375000 0.093750
v -0.093750 0.312500 0.093750
v -0.093750 0.312500 -0.093750
v -0.093750 0.312500 0.093750
v 0.093750 0.312500 0.093750
v 0.093750 0.312500 -0.093750
v -0.093750 0.312500 -0.093750
v -0.031250 0.312500 0.031250
v 0.031250 0.312500 0.031250
v 0.031250 0.000000 0.031250
v -0.031250 0.000000 0.031250
v 0.031250 0.312500 0.031250
v 0.031250 0.312500 -0.031250
v 0.031250 0.000000 -0.031250
v 0.031250 0.000000 0.031250
v 0.031250 0.312500 -0.031250
v -0.031250 0.312500 -0.031250
v -0.031250 0.000000 -0.031250
v 0.031250 0.000000 -0.031250
v -0.031250 0.312500 -0.031250
v -0.031250 0.312500 0.031250
v -0.031250 0.000000 0.031250
v -0.031250 0.000000 -0.031250
v -0.031250 0.000000 0.031250
v 0.031250 0.000000 0.031250
v 0.031250 0.000000 -0.031250
v -0.031250 0.000000 -0.031250
v 0.062500 0.375000 0.062500
v 0.062500 0.375000 -0.062500
v -0.062500 0.375000 -0.062500
v -0.062500 0.375000 0.062500
v 0.062500 1.406250 -0.062500
v -0.062500 1.406250 -0.062500
v -0.062500 0.375000 -0.062500
v 0.062500 0.375000 -0.062500
v -0.062500 1.406250 -0.062500
v -0.062500 1.406250 0.062500
v -0.062500 0.375000 0.062500
v -0.062500 0.375000 -0.062500
v -0.062500 1.406250 0.062500
v 0.062500 1.406250 0.062500
v 0.062500 0.375000 0.062500
v -0.062500 0.375000 0.062500
v 0.062500 1.406250 0.062500
v 0.062500 1.406250 -0.062500
v 0.062500 0.375000 -0.062500
v 0.062500 0.375000 0.062500
v 0.062500 1.406250 0.062500
v -0.062500 1.406250 0.062500
v -0.062500 1.406250 -0.062500
v 0.062500 1.406250 -0.062500
v -0.062500 0.375000 0.062500
v 0.062500 0.375000 0.062500
v 0.062500 0.375000 -0.062500
v -0.062500 0.375000 -0.062500
v -0.031250 1.375000 0.031250
v 0.031250 1.375000 0.031250
v 0.031250 0.375000 0.031250
v -0.031250 0.375000 0.031250
v 0.031250 1.375000 0.031250
v 0.031250 1.375000 -0.031250
v 0.031250 0.375000 -0.031250
v 0.031250 0.375000 0.031250
v 0.031250 1.375000 -0.031250
v -0.031250 1.375000 -0.031250
v -0.031250 0.375000 -0.031250
v 0.031250 0.375000 -0.031250
v -0.031250 1.375000 -0.031250
v -0.031250 1.375000 0.031250
v -0.031250 0.375000 0.031250
v -0.031250 0.375000 -0.031250
v -0.031250 1.375000 -0.031250
v 0.031250 1.375000 -0.031250
v 0.031250 1.375000 0.031250
v -0.031250 1.375000 0.031250
v 0.031250 0.375000 0.031250
v 0.031250 0.375000 -0.031250
v -0.031250 0.375000 -0.031250
v -0.031250 0.375000 0.031250

vt 0.21875 0.09375
vt 0.21875 0.00000
vt 0.234375 0.015625
vt 0.234375 0.078125
vt 0.31250 0.09375
vt 0.296875 0.078125
vt 0.31250 0.00000
vt 0.296875 0.015625
vt 0.40625 0.09375
vt 0.50000 0.09375
vt 0.50000 0.12500
vt 0.40625 0.12500
vt 0.12500 0.09375
vt 0.21875 0.12500
vt 0.12500 0.12500
vt 0.31250 0.12500
vt 0.40625 0.00000
vt 0.09375 0.03125
vt 0.12500 0.03125
vt 0.12500 0.18750
vt 0.09375 0.18750
vt 0.00000 0.03125
vt 0.03125 0.03125
vt 0.03125 0.18750
vt 0.00000 0.18750
vt 0.06250 0.03125
vt 0.06250 0.18750
vt 0.09375 0.00000
vt 0.06250 0.00000
vt 0.37500 0.21875
vt 0.37500 0.75000
vt 0.31250 0.75000
vt 0.31250 0.21875
vt 0.18750 0.21875
vt 0.18750 0.75000
vt 0.12500 0.75000
vt 0.12500 0.21875
vt 0.25000 0.21875
vt 0.25000 0.75000
vt 0.25000 0.15625
vt 0.31250 0.15625
vt 0.18750 0.15625
vt 0.09375 0.21875
vt 0.12500 0.71875
vt 0.09375 0.71875
vt 0.00000 0.21875
vt 0.03125 0.21875
vt 0.03125 0.71875
vt 0.00000 0.71875
vt 0.06250 0.21875
vt 0.06250 0.71875

vn 0.00000 1.00000 0.00000
vn 0.00000 0.00000 1.00000
vn 1.00000 0.00000 0.00000
vn 0.00000 0.00000 -1.00000
vn -1.00000 0.00000 0.00000
vn 0.00000 -1.00000 0.00000

g Hilt
#_color 0.8 0.8 0.8 1
f 4/4/1 3/3/1 2/2/1 1/1/1
f 8/6/1 7/4/1 6/1/1 5/5/1
f 12/3/1 11/8/1 10/7/1 9/2/1
f 16/7/1 15/8/1 14/6/1 13/5/1
f 20/12/2 19/11/2 18/10/2 17/9/2
f 24/15/3 23/14/3 22/1/3 21/13/3
f 28/14/4 27/16/4 26/5/4 25/1/4
f 32/16/5 31/12/5 30/9/5 29/5/5
f 36/9/6 35/5/6 34/7/6 33/17/6
f 40/21/2 39/20/2 38/19/2 37/18/2
f 44/25/3 43/24/3 42/23/3 41/22/3
f 48/24/4 47/27/4 46/26/4 45/23/4
f 52/27/5 51/21/5 50/18/5 49/26/5
f 56/18/6 55/26/6 54/29/6 53/28/6
g Hilt2
#_color 0.8 0.8 0.8 1
f 58/4/1 59/6/1 60/8/1 57/3/1
g BladeOut
#_color 1 1 1 1
f 62/33/2 63/32/2 64/31/2 61/30/2
f 66/37/3 67/36/3 68/35/3 65/34/3
f 70/34/4 71/35/4 72/39/4 69/38/4
f 74/38/5 75/39/5 76/32/5 73/33/5
f 78/41/6 79/33/6 80/38/6 77/40/6
f 82/42/1 83/34/1 84/38/1 81/40/1
g BladeIn
#_color 1 1 1 1
f 88/45/2 87/44/2 86/37/2 85/43/2
f 92/49/3 91/48/3 90/47/3 89/46/3
f 96/48/4 95/51/4 94/50/4 93/47/4
f 100/51/5 99/45/5 98/43/5 97/50/5
f 104/27/1 103/24/1 102/47/1 101/50/1
f 108/21/6 107/43/6 106/50/6 105/27/6

