# ToLaserBlade
# https://github.com/Iunius118/ToLaserBlade
# Copyright 2020 Iunius118
# This work is licensed under the MIT License.

#_name laser_blade_801.obj
#_texture tolaserblade:textures/item/internal/laser_blade_801.png

v 0.031250 0.125000 0.000000
v 0.031250 0.125000 -0.125000
v 0.031250 0.000000 -0.125000
v 0.031250 0.000000 0.000000
v 0.031250 0.125000 -0.125000
v -0.031250 0.125000 -0.125000
v -0.031250 0.000000 -0.125000
v 0.031250 0.000000 -0.125000
v -0.031250 0.125000 -0.125000
v -0.031250 0.125000 0.000000
v -0.031250 0.000000 0.000000
v -0.031250 0.000000 -0.125000
v -0.031250 0.000000 0.000000
v 0.031250 0.000000 0.000000
v 0.031250 0.000000 -0.125000
v -0.031250 0.000000 -0.125000
v -0.031250 0.125000 0.000000
v 0.031250 0.125000 0.000000
v 0.031250 0.000000 0.000000
v -0.031250 0.000000 0.000000
v 0.031250 0.125000 -0.125000
v -0.031250 0.125000 -0.125000
v 0.031250 0.250000 0.062500
v 0.031250 0.250000 -0.062500
v 0.031250 0.125000 -0.062500
v 0.031250 0.125000 0.062500
v 0.031250 0.250000 -0.062500
v -0.031250 0.250000 -0.062500
v -0.031250 0.125000 -0.062500
v 0.031250 0.125000 -0.062500
v -0.031250 0.250000 -0.062500
v -0.031250 0.250000 0.062500
v -0.031250 0.125000 0.062500
v -0.031250 0.125000 -0.062500
v -0.031250 0.125000 0.062500
v 0.031250 0.125000 0.062500
v 0.031250 0.125000 -0.062500
v -0.031250 0.125000 -0.062500
v -0.031250 0.250000 0.062500
v 0.031250 0.250000 0.062500
v 0.031250 0.125000 0.062500
v -0.031250 0.125000 0.062500
v 0.031250 0.250000 -0.062500
v -0.031250 0.250000 -0.062500
v 0.031250 0.687500 0.062500
v 0.031250 0.687500 0.000000
v 0.031250 0.250000 0.000000
v 0.031250 0.250000 0.062500
v 0.031250 0.687500 0.000000
v -0.031250 0.687500 0.000000
v -0.031250 0.250000 0.000000
v 0.031250 0.250000 0.000000
v -0.031250 0.687500 0.000000
v -0.031250 0.687500 0.062500
v -0.031250 0.250000 0.062500
v -0.031250 0.250000 0.000000
v -0.031250 0.250000 0.062500
v 0.031250 0.250000 0.062500
v 0.031250 0.250000 0.000000
v -0.031250 0.250000 0.000000
v -0.031250 0.687500 0.062500
v 0.031250 0.687500 0.062500
v 0.031250 0.250000 0.062500
v -0.031250 0.250000 0.062500
v 0.031250 0.687500 0.000000
v -0.031250 0.687500 0.000000
v 0.031250 0.625000 0.125000
v 0.031250 0.625000 0.062500
v 0.031250 0.500000 0.062500
v 0.031250 0.500000 0.125000
v -0.031250 0.625000 0.062500
v -0.031250 0.625000 0.125000
v -0.031250 0.500000 0.125000
v -0.031250 0.500000 0.062500
v 0.031250 0.750000 0.125000
v 0.031250 0.750000 0.062500
v 0.031250 0.625000 0.062500
v 0.031250 0.625000 0.125000
v 0.031250 0.750000 0.062500
v -0.031250 0.750000 0.062500
v -0.031250 0.625000 0.062500
v 0.031250 0.625000 0.062500
v -0.031250 0.750000 0.062500
v -0.031250 0.750000 0.125000
v -0.031250 0.625000 0.125000
v -0.031250 0.625000 0.062500
v -0.031250 0.750000 0.125000
v 0.031250 0.750000 0.125000
v 0.031250 0.625000 0.125000
v -0.031250 0.625000 0.125000
v 0.031250 0.875000 0.125000
v 0.031250 0.875000 0.062500
v 0.031250 0.812500 0.062500
v 0.031250 0.812500 0.125000
v 0.031250 0.875000 0.062500
v -0.031250 0.875000 0.062500
v -0.031250 0.812500 0.062500
v 0.031250 0.812500 0.062500
v -0.031250 0.875000 0.062500
v -0.031250 0.875000 0.125000
v -0.031250 0.812500 0.125000
v -0.031250 0.812500 0.062500
v 0.031250 1.062500 0.062500
v 0.031250 1.062500 0.000000
v 0.031250 0.937500 0.000000
v 0.031250 0.937500 0.062500
v 0.031250 1.062500 0.000000
v -0.031250 1.062500 0.000000
v -0.031250 0.937500 0.000000
v 0.031250 0.937500 0.000000
v -0.031250 1.062500 0.000000
v -0.031250 1.062500 0.062500
v -0.031250 0.937500 0.062500
v -0.031250 0.937500 0.000000
v -0.031250 1.062500 0.062500
v 0.031250 1.062500 0.062500
v 0.031250 0.937500 0.062500
v -0.031250 0.937500 0.062500
v -0.031250 0.359375 0.000000
v 0.031250 0.359375 0.000000
v 0.031250 0.359375 -0.062500
v -0.031250 0.359375 -0.062500
v 0.031250 0.406250 -0.062500
v -0.031250 0.406250 -0.062500
v -0.031250 0.312500 -0.062500
v 0.031250 0.312500 -0.062500
v -0.031250 0.312500 0.000000
v 0.031250 0.312500 0.000000
v 0.031250 0.312500 -0.062500
v -0.031250 0.312500 -0.062500
v -0.031250 0.406250 0.000000
v 0.031250 0.406250 0.000000
v 0.031250 0.406250 -0.062500
v -0.031250 0.406250 -0.062500
v 0.031250 0.500000 0.125000
v 0.031250 0.500000 0.062500
v 0.031250 0.312500 0.062500
v 0.031250 0.312500 0.125000
v -0.031250 0.500000 0.062500
v -0.031250 0.500000 0.125000
v -0.031250 0.312500 0.125000
v -0.031250 0.312500 0.062500
v -0.031250 0.312500 0.125000
v 0.031250 0.312500 0.125000
v 0.031250 0.312500 0.062500
v -0.031250 0.312500 0.062500
v -0.031250 0.500000 0.125000
v 0.031250 0.500000 0.125000
v 0.031250 0.312500 0.125000
v -0.031250 0.312500 0.125000
v 0.093750 0.406250 0.125000
v 0.093750 0.406250 0.000000
v 0.093750 0.343750 0.000000
v 0.093750 0.343750 0.125000
v 0.093750 0.406250 0.000000
v 0.031250 0.406250 0.000000
v 0.031250 0.343750 0.000000
v 0.093750 0.343750 0.000000
v 0.031250 0.406250 0.000000
v 0.031250 0.406250 0.125000
v 0.031250 0.343750 0.125000
v 0.031250 0.343750 0.000000
v 0.031250 0.343750 0.125000
v 0.093750 0.343750 0.125000
v 0.093750 0.343750 0.000000
v 0.031250 0.343750 0.000000
v 0.031250 0.406250 0.125000
v 0.093750 0.406250 0.125000
v 0.093750 0.343750 0.125000
v 0.031250 0.343750 0.125000
v 0.093750 0.406250 0.000000
v 0.031250 0.406250 0.000000
v -0.031250 0.625000 0.125000
v 0.031250 0.625000 0.125000
v 0.031250 0.500000 0.125000
v -0.031250 0.500000 0.125000
v 0.031250 0.812500 0.125000
v 0.031250 0.812500 0.062500
v 0.031250 0.750000 0.062500
v 0.031250 0.750000 0.125000
v 0.031250 0.812500 0.062500
v -0.031250 0.812500 0.062500
v -0.031250 0.750000 0.062500
v 0.031250 0.750000 0.062500
v -0.031250 0.812500 0.062500
v -0.031250 0.812500 0.125000
v -0.031250 0.750000 0.125000
v -0.031250 0.750000 0.062500
v -0.031250 0.812500 0.125000
v 0.031250 0.812500 0.125000
v 0.031250 0.750000 0.125000
v -0.031250 0.750000 0.125000
v -0.031250 0.875000 0.125000
v 0.031250 0.875000 0.125000
v 0.031250 0.812500 0.125000
v -0.031250 0.812500 0.125000
v 0.031250 1.062500 0.125000
v 0.031250 1.062500 0.062500
v 0.031250 0.875000 0.062500
v 0.031250 0.875000 0.125000
v 0.031250 1.062500 0.062500
v -0.031250 1.062500 0.062500
v -0.031250 0.875000 0.062500
v 0.031250 0.875000 0.062500
v -0.031250 1.062500 0.062500
v -0.031250 1.062500 0.125000
v -0.031250 0.875000 0.125000
v -0.031250 0.875000 0.062500
v -0.031250 1.062500 0.125000
v 0.031250 1.062500 0.125000
v 0.031250 0.875000 0.125000
v -0.031250 0.875000 0.125000
v 0.031250 1.062500 0.062500
v -0.031250 1.062500 0.062500
v 0.031250 1.062500 0.187500
v 0.031250 1.062500 0.125000
v 0.031250 1.000000 0.125000
v 0.031250 1.000000 0.187500
v -0.031250 1.062500 0.125000
v -0.031250 1.062500 0.187500
v -0.031250 1.000000 0.187500
v -0.031250 1.000000 0.125000
v -0.031250 1.062500 0.187500
v 0.031250 1.062500 0.187500
v 0.031250 1.000000 0.187500
v -0.031250 1.000000 0.187500
v 0.031250 0.937500 0.062500
v 0.031250 0.937500 0.000000
v 0.031250 0.875000 0.000000
v 0.031250 0.875000 0.062500
v 0.031250 0.937500 0.000000
v -0.031250 0.937500 0.000000
v -0.031250 0.875000 0.000000
v 0.031250 0.875000 0.000000
v -0.031250 0.937500 0.000000
v -0.031250 0.937500 0.062500
v -0.031250 0.875000 0.062500
v -0.031250 0.875000 0.000000
v -0.031250 0.875000 0.062500
v 0.031250 0.875000 0.062500
v 0.031250 0.875000 0.000000
v -0.031250 0.875000 0.000000
v -0.031250 0.937500 0.062500
v 0.031250 0.937500 0.062500
v 0.031250 0.875000 0.062500
v -0.031250 0.875000 0.062500
v 0.031250 1.375000 0.062500
v 0.031250 1.375000 0.000000
v 0.031250 1.062500 0.000000
v 0.031250 1.062500 0.062500
v 0.031250 1.375000 0.000000
v -0.031250 1.375000 0.000000
v -0.031250 1.062500 0.000000
v 0.031250 1.062500 0.000000
v -0.031250 1.375000 0.000000
v -0.031250 1.375000 0.062500
v -0.031250 1.062500 0.062500
v -0.031250 1.062500 0.000000
v -0.031250 1.375000 0.062500
v 0.031250 1.375000 0.062500
v 0.031250 1.062500 0.062500
v -0.031250 1.062500 0.062500
v 0.031250 1.375000 0.000000
v -0.031250 1.375000 0.000000
v 0.031250 1.375000 0.000000
v -0.031250 1.375000 0.000000
v -0.031250 1.062500 0.000000
v 0.031250 1.062500 0.000000
v -0.031250 1.375000 0.000000
v -0.031250 1.375000 0.062500
v -0.031250 1.062500 0.062500
v -0.031250 1.062500 0.000000
v -0.031250 1.375000 0.062500
v 0.031250 1.375000 0.062500
v 0.031250 1.062500 0.062500
v -0.031250 1.062500 0.062500
v 0.031250 1.375000 0.062500
v 0.031250 1.375000 0.000000
v 0.031250 1.062500 0.000000
v 0.031250 1.062500 0.062500
v 0.031250 1.375000 0.062500
v -0.031250 1.375000 0.062500
v -0.031250 1.375000 0.000000
v 0.031250 1.375000 0.000000
v -0.031250 1.062500 0.062500
v 0.031250 1.062500 0.062500
v 0.031250 1.062500 0.000000
v -0.031250 1.062500 0.000000
v -0.025000 1.368750 0.056250
v 0.025000 1.368750 0.056250
v 0.025000 1.068750 0.056250
v -0.025000 1.068750 0.056250
v 0.025000 1.368750 0.056250
v 0.025000 1.368750 0.006250
v 0.025000 1.068750 0.006250
v 0.025000 1.068750 0.056250
v 0.025000 1.368750 0.006250
v -0.025000 1.368750 0.006250
v -0.025000 1.068750 0.006250
v 0.025000 1.068750 0.006250
v -0.025000 1.368750 0.006250
v -0.025000 1.368750 0.056250
v -0.025000 1.068750 0.056250
v -0.025000 1.068750 0.006250
v -0.025000 1.368750 0.006250
v 0.025000 1.368750 0.006250
v 0.025000 1.368750 0.056250
v -0.025000 1.368750 0.056250
v 0.025000 1.068750 0.056250
v 0.025000 1.068750 0.006250
v -0.025000 1.068750 0.006250
v -0.025000 1.068750 0.056250
v -0.062500 1.406250 0.093750
v 0.062500 1.406250 0.093750
v 0.062500 1.031250 0.093750
v -0.062500 1.031250 0.093750
v 0.062500 1.406250 0.093750
v 0.062500 1.406250 -0.031250
v 0.062500 1.031250 -0.031250
v 0.062500 1.031250 0.093750
v 0.062500 1.406250 -0.031250
v -0.062500 1.406250 -0.031250
v -0.062500 1.031250 -0.031250
v 0.062500 1.031250 -0.031250
v -0.062500 1.406250 -0.031250
v -0.062500 1.406250 0.093750
v -0.062500 1.031250 0.093750
v -0.062500 1.031250 -0.031250
v -0.062500 1.406250 -0.031250
v 0.062500 1.406250 -0.031250
v 0.062500 1.406250 0.093750
v -0.062500 1.406250 0.093750
v 0.062500 1.031250 0.093750
v -0.062500 1.031250 0.093750
v 0.062500 1.031250 -0.031250
v -0.062500 1.031250 -0.031250

vt 0.12500 0.93750
vt 0.18750 0.93750
vt 0.18750 1.00000
vt 0.12500 1.00000
vt 0.21875 0.93750
vt 0.21875 1.00000
vt 0.28125 0.93750
vt 0.28125 1.00000
vt 0.25000 0.87500
vt 0.21875 0.87500
vt 0.25000 0.93750
vt 0.31250 0.93750
vt 0.31250 1.00000
vt 0.18750 0.87500
vt 0.12500 0.81250
vt 0.18750 0.81250
vt 0.12500 0.87500
vt 0.21875 0.81250
vt 0.28125 0.81250
vt 0.28125 0.87500
vt 0.25000 0.75000
vt 0.21875 0.75000
vt 0.25000 0.81250
vt 0.31250 0.81250
vt 0.31250 0.87500
vt 0.18750 0.75000
vt 0.12500 0.53125
vt 0.15625 0.53125
vt 0.15625 0.75000
vt 0.12500 0.75000
vt 0.18750 0.53125
vt 0.21875 0.53125
vt 0.21875 0.50000
vt 0.18750 0.50000
vt 0.25000 0.53125
vt 0.15625 0.50000
vt 0.00000 0.59375
vt 0.03125 0.59375
vt 0.03125 0.65625
vt 0.00000 0.65625
vt 0.06250 0.59375
vt 0.09375 0.59375
vt 0.09375 0.65625
vt 0.06250 0.65625
vt 0.00000 0.50000
vt 0.03125 0.50000
vt 0.03125 0.56250
vt 0.00000 0.56250
vt 0.06250 0.50000
vt 0.06250 0.56250
vt 0.09375 0.50000
vt 0.09375 0.56250
vt 0.12500 0.50000
vt 0.12500 0.56250
vt 0.00000 0.37500
vt 0.03125 0.37500
vt 0.03125 0.40625
vt 0.00000 0.40625
vt 0.06250 0.37500
vt 0.06250 0.40625
vt 0.09375 0.37500
vt 0.09375 0.40625
vt 0.12500 0.21875
vt 0.15625 0.21875
vt 0.15625 0.28125
vt 0.12500 0.28125
vt 0.18750 0.21875
vt 0.18750 0.28125
vt 0.21875 0.21875
vt 0.21875 0.28125
vt 0.25000 0.21875
vt 0.25000 0.28125
vt 0.28125 0.62500
vt 0.25000 0.62500
vt 0.25000 0.65625
vt 0.28125 0.65625
vt 0.25000 0.56250
vt 0.28125 0.56250
vt 0.31250 0.53125
vt 0.28125 0.53125
vt 0.31250 0.56250
vt 0.00000 0.68750
vt 0.03125 0.68750
vt 0.03125 0.78125
vt 0.00000 0.78125
vt 0.06250 0.68750
vt 0.09375 0.68750
vt 0.09375 0.78125
vt 0.06250 0.78125
vt 0.12500 0.68750
vt 0.12500 0.78125
vt 0.25000 0.71875
vt 0.31250 0.71875
vt 0.31250 0.75000
vt 0.34375 0.71875
vt 0.34375 0.75000
vt 0.40625 0.71875
vt 0.40625 0.75000
vt 0.37500 0.65625
vt 0.34375 0.65625
vt 0.37500 0.71875
vt 0.43750 0.71875
vt 0.43750 0.75000
vt 0.31250 0.65625
vt 0.12500 0.59375
vt 0.12500 0.65625
vt 0.00000 0.43750
vt 0.03125 0.43750
vt 0.03125 0.46875
vt 0.00000 0.46875
vt 0.06250 0.43750
vt 0.06250 0.46875
vt 0.09375 0.43750
vt 0.09375 0.46875
vt 0.12500 0.43750
vt 0.12500 0.46875
vt 0.12500 0.37500
vt 0.12500 0.40625
vt 0.00000 0.25000
vt 0.03125 0.25000
vt 0.03125 0.34375
vt 0.00000 0.34375
vt 0.06250 0.25000
vt 0.06250 0.34375
vt 0.09375 0.25000
vt 0.09375 0.34375
vt 0.12500 0.25000
vt 0.12500 0.34375
vt 0.03125 0.21875
vt 0.06250 0.21875
vt 0.00000 0.18750
vt 0.03125 0.18750
vt 0.00000 0.21875
vt 0.06250 0.18750
vt 0.09375 0.18750
vt 0.09375 0.21875
vt 0.12500 0.18750
vt 0.12500 0.31250
vt 0.15625 0.31250
vt 0.15625 0.34375
vt 0.18750 0.31250
vt 0.18750 0.34375
vt 0.21875 0.31250
vt 0.21875 0.34375
vt 0.25000 0.31250
vt 0.25000 0.34375
vt 0.62500 0.03125
vt 0.65625 0.03125
vt 0.65625 0.18750
vt 0.62500 0.18750
vt 0.68750 0.03125
vt 0.68750 0.18750
vt 0.71875 0.03125
vt 0.71875 0.18750
vt 0.75000 0.03125
vt 0.75000 0.18750
vt 0.65625 0.00000
vt 0.68750 0.00000
vt 0.34375 0.03125
vt 0.37500 0.03125
vt 0.37500 0.18750
vt 0.34375 0.18750
vt 0.25000 0.03125
vt 0.28125 0.03125
vt 0.28125 0.18750
vt 0.25000 0.18750
vt 0.31250 0.03125
vt 0.31250 0.18750
vt 0.34375 0.00000
vt 0.31250 0.00000
vt 0.28125 0.00000
vt 0.21875 0.18750
vt 0.21875 0.03125
vt 0.12500 0.03125
vt 0.15625 0.03125
vt 0.15625 0.18750
vt 0.18750 0.03125
vt 0.18750 0.18750
vt 0.18750 0.00000
vt 0.15625 0.00000
vt 0.21875 0.00000
vt 0.56250 0.25000
vt 0.56250 0.06250
vt 0.62500 0.06250
vt 0.62500 0.25000
vt 0.37500 0.25000
vt 0.37500 0.06250
vt 0.43750 0.06250
vt 0.43750 0.25000
vt 0.50000 0.06250
vt 0.50000 0.25000
vt 0.50000 0.00000
vt 0.43750 0.00000
vt 0.56250 0.00000

vn 1.00000 0.00000 0.00000
vn 0.00000 0.00000 -1.00000
vn -1.00000 0.00000 0.00000
vn 0.00000 -1.00000 0.00000
vn 0.00000 0.00000 1.00000
vn 0.00000 1.00000 0.00000

g Hilt
#_color 0.8 0.8 0.8 1
f 4/4/1 3/3/1 2/2/1 1/1/1
f 8/3/2 7/6/2 6/5/2 5/2/2
f 12/6/3 11/8/3 10/7/3 9/5/3
f 16/11/4 15/5/4 14/10/4 13/9/4
f 20/8/5 19/13/5 18/12/5 17/7/5
f 21/2/6 22/5/6 17/10/6 18/14/6
f 26/17/1 25/14/1 24/16/1 23/15/1
f 30/14/2 29/10/2 28/18/2 27/16/2
f 34/10/3 33/20/3 32/19/3 31/18/3
f 38/23/4 37/18/4 36/22/4 35/21/4
f 42/20/5 41/25/5 40/24/5 39/19/5
f 43/16/6 44/18/6 39/22/6 40/26/6
f 48/30/1 47/29/1 46/28/1 45/27/1
f 52/29/2 51/26/2 50/31/2 49/28/2
f 56/26/3 55/22/3 54/32/3 53/31/3
f 60/32/4 59/31/4 58/34/4 57/33/4
f 64/22/5 63/21/5 62/35/5 61/32/5
f 65/28/6 66/31/6 61/34/6 62/36/6
f 70/40/1 69/39/1 68/38/1 67/37/1
f 74/44/3 73/43/3 72/42/3 71/41/3
f 78/48/1 77/47/1 76/46/1 75/45/1
f 82/47/2 81/50/2 80/49/2 79/46/2
f 86/50/3 85/52/3 84/51/3 83/49/3
f 90/52/5 89/54/5 88/53/5 87/51/5
f 94/58/1 93/57/1 92/56/1 91/55/1
f 98/57/2 97/60/2 96/59/2 95/56/2
f 102/60/3 101/62/3 100/61/3 99/59/3
f 106/66/1 105/65/1 104/64/1 103/63/1
f 110/65/2 109/68/2 108/67/2 107/64/2
f 114/68/3 113/70/3 112/69/3 111/67/3
f 118/70/5 117/72/5 116/71/5 115/69/5
g HiltNoTint
#_color 0.8 0.8 0.8 1
f 122/76/4 121/75/4 120/74/4 119/73/4
f 119/73/6 120/74/6 121/75/6 122/76/6
f 126/74/2 125/73/2 124/78/2 123/77/2
f 130/81/4 129/78/4 128/80/4 127/79/4
f 133/77/6 134/78/6 131/80/6 132/35/6
f 123/77/5 124/78/5 125/73/5 126/74/5
f 127/79/6 128/80/6 129/78/6 130/81/6
f 132/35/4 131/80/4 134/78/4 133/77/4
f 138/85/1 137/84/1 136/83/1 135/82/1
f 142/89/3 141/88/3 140/87/3 139/86/3
f 146/87/4 145/86/4 144/44/4 143/43/4
f 150/88/5 149/91/5 148/90/5 147/87/5
f 154/21/1 153/94/1 152/93/1 151/92/1
f 158/94/2 157/96/2 156/95/2 155/93/2
f 162/96/3 161/98/3 160/97/3 159/95/3
f 166/101/4 165/95/4 164/100/4 163/99/4
f 170/98/5 169/103/5 168/102/5 167/97/5
f 171/93/6 172/95/6 167/100/6 168/104/6
f 176/43/5 175/106/5 174/105/5 173/42/5
f 180/110/1 179/109/1 178/108/1 177/107/1
f 184/109/2 183/112/2 182/111/2 181/108/2
f 188/112/3 187/114/3 186/113/3 185/111/3
f 192/114/5 191/116/5 190/115/5 189/113/5
f 196/62/5 195/118/5 194/117/5 193/61/5
f 200/122/1 199/121/1 198/120/1 197/119/1
f 204/121/2 203/124/2 202/123/2 201/120/2
f 208/124/3 207/126/3 206/125/3 205/123/3
f 212/126/5 211/128/5 210/127/5 209/125/5
f 213/120/6 214/123/6 209/130/6 210/129/6
f 218/133/1 217/129/1 216/132/1 215/131/1
f 222/130/3 221/136/3 220/135/3 219/134/3
f 226/136/5 225/63/5 224/137/5 223/135/5
f 215/131/3 216/132/3 217/129/3 218/133/3
f 219/134/1 220/135/1 221/136/1 222/130/1
f 223/135/2 224/137/2 225/63/2 226/136/2
f 230/128/1 229/140/1 228/139/1 227/138/1
f 234/140/2 233/142/2 232/141/2 231/139/2
f 238/142/3 237/144/3 236/143/3 235/141/3
f 242/143/4 241/141/4 240/68/4 239/70/4
f 246/144/5 245/146/5 244/145/5 243/143/5
g BladeOff
#_color 0.8 0.8 0.8 1
f 250/150/1 249/149/1 248/148/1 247/147/1
f 254/149/2 253/152/2 252/151/2 251/148/2
f 258/152/3 257/154/3 256/153/3 255/151/3
f 262/154/5 261/156/5 260/155/5 259/153/5
f 263/148/6 264/151/6 259/158/6 260/157/6
g BladeMid
#_color 1 1 1 1
f 267/162/5 268/161/5 265/160/5 266/159/5
f 271/166/1 272/165/1 269/164/1 270/163/1
f 275/165/2 276/168/2 273/167/2 274/164/2
f 279/168/3 280/162/3 277/159/3 278/167/3
f 283/159/4 284/167/4 281/170/4 282/169/4
f 287/164/6 288/167/6 285/170/6 286/171/6
g BladeIn
#_color 1 1 1 1
f 291/166/5 290/163/5 289/173/5 292/172/5
f 295/176/1 294/175/1 293/174/1 296/137/1
f 299/178/2 298/177/2 297/175/2 300/176/2
f 303/172/3 302/173/3 301/177/3 304/178/3
f 307/180/6 306/175/6 305/177/6 308/179/6
f 311/173/4 310/177/4 309/179/4 312/181/4
g BladeOut
#_color 1 1 1 0.5
f 315/185/5 314/184/5 313/183/5 316/182/5
f 319/189/1 318/188/1 317/187/1 320/186/1
f 323/191/2 322/190/2 321/188/2 324/189/2
f 327/182/3 326/183/3 325/190/3 328/191/3
f 331/193/6 330/188/6 329/190/6 332/192/6
f 334/194/4 336/183/4 335/190/4 333/192/4

